<svg xmlns="http://www.w3.org/2000/svg" width="22" height="17.6" viewBox="0 0 22 17.6">
  <path id="Icon_awesome-ambulance" data-name="Icon awesome-ambulance" d="M21.45,12.1H20.9V8.384a1.65,1.65,0,0,0-.485-1.165L16.981,3.785A1.65,1.65,0,0,0,15.816,3.3H14.3V1.65A1.65,1.65,0,0,0,12.65,0h-11A1.65,1.65,0,0,0,0,1.65v11A1.65,1.65,0,0,0,1.65,14.3H2.2a3.3,3.3,0,1,0,6.6,0h4.4a3.3,3.3,0,1,0,6.6,0h1.65a.552.552,0,0,0,.55-.55v-1.1A.552.552,0,0,0,21.45,12.1ZM5.5,15.95A1.65,1.65,0,1,1,7.15,14.3,1.65,1.65,0,0,1,5.5,15.95Zm4.95-8.525a.276.276,0,0,1-.275.275H8.25V9.625a.276.276,0,0,1-.275.275H6.325a.276.276,0,0,1-.275-.275V7.7H4.125a.276.276,0,0,1-.275-.275V5.775A.276.276,0,0,1,4.125,5.5H6.05V3.575A.276.276,0,0,1,6.325,3.3h1.65a.276.276,0,0,1,.275.275V5.5h1.925a.276.276,0,0,1,.275.275ZM16.5,15.95a1.65,1.65,0,1,1,1.65-1.65A1.65,1.65,0,0,1,16.5,15.95ZM19.25,8.8H14.3V4.95h1.516L19.25,8.384Z" fill="#0061a3"/>
</svg>
