<?xml version="1.0" encoding="UTF-8"?>
<svg width="16px" height="14px" viewBox="0 0 16 14" version="1.1" xmlns="http://www.w3.org/2000/svg" xmlns:xlink="http://www.w3.org/1999/xlink">
    <g id="Page-1" stroke="none" stroke-width="1" fill="none" fill-rule="evenodd">
        <g id="arrow-right" transform="translate(8.000000, 7.000000) scale(-1, 1) translate(-8.000000, -7.000000) " fill-rule="nonzero" fill="#0061A3">
            <path d="M9.79055169,0.183953999 C9.52428495,-0.0696492496 9.1020572,-0.0596517497 8.84845395,0.206948249 C8.59451745,0.473548247 8.60518145,0.895442745 8.8714482,1.14937924 L13.9841697,5.99849997 L0.666499996,5.99849997 C0.298591998,5.99849997 0,6.29709196 0,6.66499996 C0,7.03290796 0.298591998,7.33149996 0.666499996,7.33149996 L13.9628417,7.33149996 L8.8714482,12.1809539 C8.6048482,12.4348904 8.59451745,12.8567849 8.84845395,13.1233849 C8.9794212,13.2606839 9.15504395,13.3299999 9.33099995,13.3299999 C9.49629195,13.3299999 9.66158394,13.2690152 9.79055169,13.1460459 L15.6054309,7.60743096 C15.8573679,7.35582721 15.9959999,7.02124421 15.9959999,6.66499996 C15.9959999,6.30875571 15.8573679,5.97417272 15.5937672,5.71123847 L9.79055169,0.183953999 Z" id="Shape"></path>
        </g>
    </g>
</svg>