<svg xmlns="http://www.w3.org/2000/svg" width="15" height="12" viewBox="0 0 15 12"><path d="M13.708,9.135l-.351-.878L12.734,6.7a3.483,3.483,0,0,0-3.25-2.2H5.516a3.483,3.483,0,0,0-3.25,2.2L1.643,8.257l-.351.878A2,2,0,0,0,0,11v1.5a1.984,1.984,0,0,0,.5,1.31V15.5a1,1,0,0,0,1,1h1a1,1,0,0,0,1-1v-1h8v1a1,1,0,0,0,1,1h1a1,1,0,0,0,1-1V13.81A1.982,1.982,0,0,0,15,12.5V11A2,2,0,0,0,13.708,9.135ZM4.123,7.443A1.5,1.5,0,0,1,5.516,6.5H9.484a1.5,1.5,0,0,1,1.393.943L11.5,9h-8l.623-1.557ZM2.5,12.494a1,1,0,1,1,0-1.994A1.924,1.924,0,0,1,4,12C4,12.593,3.1,12.494,2.5,12.494Zm10,0c-.6,0-1.5.1-1.5-.5a1.924,1.924,0,0,1,1.5-1.5,1,1,0,1,1,0,1.994Z" transform="translate(0 -4.5)"/></svg>