<svg xmlns="http://www.w3.org/2000/svg" width="26.047" height="26.047" viewBox="0 0 26.047 26.047"><defs><style>.a{fill:#0ea420;}</style></defs><path class="a" d="M11742.377-7.6a13.02,13.02,0,0,1,13.022-13.022A13.022,13.022,0,0,1,11768.424-7.6,13.023,13.023,0,0,1,11755.4,5.423,13.021,13.021,0,0,1,11742.377-7.6Zm5.051-7.969a11.2,11.2,0,0,0-3.3,7.969,11.2,11.2,0,0,0,3.3,7.971,11.2,11.2,0,0,0,7.972,3.3,11.2,11.2,0,0,0,7.971-3.3,11.193,11.193,0,0,0,3.3-7.971,11.186,11.186,0,0,0-3.3-7.969,11.2,11.2,0,0,0-7.971-3.3A11.2,11.2,0,0,0,11747.428-15.571Zm4.817,12.78-3.506-3.509a.246.246,0,0,1,0-.354l1.113-1.116a.245.245,0,0,1,.177-.074.245.245,0,0,1,.175.074l2.779,2.782,7.638-7.7a.227.227,0,0,1,.177-.074.231.231,0,0,1,.175.074l1.1,1.134a.268.268,0,0,1,.006.357l-8.37,8.414h-.006a1.167,1.167,0,0,1-.727.346A1.106,1.106,0,0,1,11752.245-2.791Z" transform="translate(-11742.377 20.624)"/></svg>