<svg xmlns="http://www.w3.org/2000/svg" width="26.049" height="26.048" viewBox="0 0 26.049 26.048">
  <path id="Path_172" d="M-5035.625,3278.4a13.021,13.021,0,0,1,13.024-13.023,13.022,13.022,0,0,1,13.024,13.023,13.023,13.023,0,0,1-13.024,13.024A13.022,13.022,0,0,1-5035.625,3278.4Zm5.054-7.971a11.2,11.2,0,0,0-3.3,7.971,11.2,11.2,0,0,0,3.3,7.972,11.2,11.2,0,0,0,7.971,3.3,11.2,11.2,0,0,0,7.971-3.3,11.2,11.2,0,0,0,3.3-7.972,11.2,11.2,0,0,0-3.3-7.971,11.193,11.193,0,0,0-7.971-3.3A11.193,11.193,0,0,0-5030.571,3270.428Zm4.815,12.781-3.507-3.507a.251.251,0,0,1,0-.358l1.115-1.113a.244.244,0,0,1,.174-.076.243.243,0,0,1,.175.076l2.781,2.779,7.639-7.7a.226.226,0,0,1,.176-.074.232.232,0,0,1,.174.074l1.1,1.134a.265.265,0,0,1,.006.356l-8.371,8.416h-.006a1.158,1.158,0,0,1-.727.345A1.108,1.108,0,0,1-5025.756,3283.208Z" transform="translate(5035.625 -3265.375)"/>
</svg>
