<svg xmlns="http://www.w3.org/2000/svg" width="11.998" height="12.001" viewBox="0 0 11.998 12.001"><path class="a" d="M1235.093-11267.3l-3.68-3.679-3.679,3.679a.743.743,0,0,1-1.052,0l-1.05-1.052a.744.744,0,0,1,0-1.052l3.678-3.679-3.678-3.678a.744.744,0,0,1,0-1.052l1.05-1.051a.745.745,0,0,1,1.052,0l3.678,3.679,3.68-3.681a.745.745,0,0,1,1.052,0l1.05,1.053a.74.74,0,0,1,0,1.049l-3.68,3.681,3.68,3.681a.742.742,0,0,1,0,1.05l-1.05,1.052a.74.74,0,0,1-.526.218A.74.74,0,0,1,1235.093-11267.3Z" transform="translate(-1225.415 11279.087)"/></svg>