<svg version="1.2" xmlns="http://www.w3.org/2000/svg" xmlns:xlink="http://www.w3.org/1999/xlink" overflow="visible" preserveAspectRatio="none" viewBox="0 0 105 115.15599822998047" id="dokument_1587547227332" width="103" height="113"><g transform="translate(1, 1)"><defs><style>
      .cls-1_1587547227332 {
        fill: #979797;
      }
    </style></defs><g transform="translate(-1378 -556)" id="Artboard_1587547227332"><g transform="translate(1378 556)" id="Group-8_1587547227332"><path d="M19.407,70.454l13.445,7.022A4,4,0,0,1,35,81.022V98.567a4,4,0,0,1-1.525,3.143L20.025,112.3a4,4,0,0,1-4.91.03l-13.551-10.4A4,4,0,0,1,0,98.753V80.888a4,4,0,0,1,2.188-3.566l13.555-6.888A4,4,0,0,1,19.407,70.454Zm-.926,1.773a2,2,0,0,0-1.832-.01L3.094,79.1A2,2,0,0,0,2,80.888V98.753a2,2,0,0,0,.782,1.586l13.551,10.4a2,2,0,0,0,2.455-.015l13.449-10.59A2,2,0,0,0,33,98.567V81.022a2,2,0,0,0-1.074-1.773Z" class="cls-1_1587547227332" id="Rectangle-13_1587547227332" vector-effect="non-scaling-stroke"/><path d="M82,8H28a3,3,0,0,0-3,3V73.981a1,1,0,0,1-1.463.886l-5.056-2.641a2,2,0,0,0-1.832-.01L3.094,79.1A2,2,0,0,0,2,80.888V98.753a2,2,0,0,0,.782,1.586l13.551,10.4a2,2,0,0,0,2.455-.015l4.593-3.617A1,1,0,0,1,25,107.9a3.024,3.024,0,0,0,3,3.1H98a3,3,0,0,0,3-3V30H86a5,5,0,0,1-5-5V8Zm1,.606V25a3,3,0,0,0,3,3h14.912a1,1,0,0,0-.179-.27ZM23,11a5,5,0,0,1,5-5H82a3,3,0,0,1,2.2.96l18,19.41a3,3,0,0,1,.8,2.04V108a5,5,0,0,1-5,5H28a5,5,0,0,1-4.7-3.282L20.025,112.3a4,4,0,0,1-4.91.03l-13.551-10.4A4,4,0,0,1,0,98.753V80.888a4,4,0,0,1,2.188-3.566l13.555-6.888a4,4,0,0,1,3.664.02L23,72.331Z" class="cls-1_1587547227332" id="Combined-Shape_1587547227332" vector-effect="non-scaling-stroke"/><path d="M41,19h3a2,2,0,0,1,2,2v3a2,2,0,0,1-2,2H41a2,2,0,0,1-2-2V21A2,2,0,0,1,41,19Zm0,2v3h3V21Z" class="cls-1_1587547227332" id="Rectangle-12_1587547227332" vector-effect="non-scaling-stroke"/><rect transform="translate(39 47)" rx="1" height="2" width="48" class="cls-1_1587547227332" id="Rectangle-2-Copy_1587547227332" vector-effect="non-scaling-stroke"/><rect transform="translate(39 55)" rx="1" height="2" width="48" class="cls-1_1587547227332" id="Rectangle-2-Copy-2_1587547227332" vector-effect="non-scaling-stroke"/><rect transform="translate(39 63)" rx="1" height="2" width="48" class="cls-1_1587547227332" id="Rectangle-2-Copy-20_1587547227332" vector-effect="non-scaling-stroke"/><rect transform="translate(53 71)" rx="1" height="2" width="34" class="cls-1_1587547227332" id="Rectangle-2-Copy-21_1587547227332" vector-effect="non-scaling-stroke"/><rect transform="translate(39 36)" rx="1" height="2" width="14" class="cls-1_1587547227332" id="Rectangle-2-Copy-21-2_1587547227332" vector-effect="non-scaling-stroke"/><rect transform="translate(57 36)" rx="1" height="2" width="7" class="cls-1_1587547227332" id="Rectangle-2-Copy-22_1587547227332" vector-effect="non-scaling-stroke"/><rect transform="translate(49 19)" rx="1" height="2" width="7" class="cls-1_1587547227332" id="Rectangle-2-Copy-22-2_1587547227332" vector-effect="non-scaling-stroke"/><rect transform="translate(49 24)" rx="1" height="2" width="7" class="cls-1_1587547227332" id="Rectangle-2-Copy-23_1587547227332" vector-effect="non-scaling-stroke"/><path d="M14,87V82a1,1,0,0,1,1-1h5a1,1,0,0,1,1,1v5h5a1,1,0,0,1,1,1v5a1,1,0,0,1-1,1H21v5a1,1,0,0,1-1,1H15a1,1,0,0,1-1-1V94H9a1,1,0,0,1-1-1V88a1,1,0,0,1,1-1Zm-4,2v3h6v6h3V92h6V89H19V83H16v6Z" class="cls-1_1587547227332" id="Combined-Shape-2_1587547227332" vector-effect="non-scaling-stroke"/><path d="M72.112,84.8a34.973,34.973,0,0,0-7.23,9.482,1,1,0,1,1-1.765-.94,36.966,36.966,0,0,1,7.645-10.018A31.978,31.978,0,0,1,80.7,77.069a1,1,0,0,1,1.181,1.51q-3.528,4.965-5.307,7.523l-.217.313q.781-.317,1.788-.742a1,1,0,0,1,1.389.948l-.045,1.686a22.243,22.243,0,0,1,7.374-2.234c3.727-.526,6.586-.3,8.6.725a1,1,0,1,1-.911,1.781c-1.575-.806-4.048-1-7.4-.525a18.286,18.286,0,0,0-8.123,2.887,1,1,0,0,1-1.579-.841l.053-1.987q-1.31.538-2.1.821a9.119,9.119,0,0,1-.968.305,1.684,1.684,0,0,1-.482.053,1,1,0,0,1-.987-1.238c.076-.379,1.337-2.233,5.093-7.536A30.833,30.833,0,0,0,72.112,84.8Z" class="cls-1_1587547227332" id="Path-4_1587547227332" vector-effect="non-scaling-stroke"/><path d="M19,51a1,1,0,0,1-2,0V8a8,8,0,0,1,8-8H68a1,1,0,0,1,0,2H25a6,6,0,0,0-6,6Z" class="cls-1_1587547227332" id="Path-5_1587547227332" vector-effect="non-scaling-stroke"/></g></g></g></svg>