<svg version="1.2" xmlns="http://www.w3.org/2000/svg" xmlns:xlink="http://www.w3.org/1999/xlink" overflow="visible" preserveAspectRatio="none" viewBox="0 0 41.119998931884766 45.2599983215332" height="39" width="35"><g transform="translate(1, 1)"><defs><style>.a_1585920948480{fill:#fff;}.b_1585920948480{fill:#f2f2f2;}.c_1585920948480{fill:url(#a_1585920948480);}.d_1585920948480{fill:#c_15859209484806c6c6;}.e_1585920948480{fill:#b_1585920948480fbfbf;}.f_1585920948480{fill:#d0d0d0;}.g_1585920948480,.k_1585920948480{fill:#d9d9d9;}.h_1585920948480{fill:#e6e6e6;}.i_1585920948480{fill:#b_15859209484802b2b2;}.j_1585920948480{fill:url(#b_1585920948480);}.k_1585920948480{stroke:#d9d9d9;stroke-width:0.05px;}.l_1585920948480{fill:url(#c_1585920948480);}.m_1585920948480{fill:#fc0;}.n_1585920948480{fill:#e4ad00;}</style><linearGradient gradientUnits="objectBoundingBox" y2="-91.868" x2="-35.54" y1="-91.868" x1="-35.771" id="a_1585920948480" vector-effect="non-scaling-stroke"><stop stop-color="#fff" offset="0" vector-effect="non-scaling-stroke"/><stop stop-color="#d9d9d9" offset="0.994" vector-effect="non-scaling-stroke"/></linearGradient><linearGradient gradientUnits="objectBoundingBox" y2="-34.621" x2="-24.949" y1="-34.621" x1="-25.182" id="b_1585920948480" vector-effect="non-scaling-stroke"><stop stop-color="#fff" offset="0" vector-effect="non-scaling-stroke"/><stop stop-color="#c_15859209484806c6c6" offset="1" vector-effect="non-scaling-stroke"/></linearGradient><linearGradient xmlns:xlink="http://www.w3.org/1999/xlink" xlink:href="#b_1585920948480" y2="-48.552" x2="-33.489" y1="-48.769" x1="-33.25" id="c_1585920948480" vector-effect="non-scaling-stroke"/></defs><path transform="translate(0 -0.1)" d="M36.78,21.28a30.525,30.525,0,0,1-3-1.8c-.06-.06-.18-.06-.24-.18a11.325,11.325,0,0,0,2.64.78,5.007,5.007,0,0,0,2.88-.3,6.8,6.8,0,0,0-3.36-2.82,4.927,4.927,0,0,0,2.1-.18,1.313,1.313,0,0,0,1.02-1.32,5.483,5.483,0,0,1-2.64.18c1.14-.24,2.16-.54,2.64-1.44a5.839,5.839,0,0,0-2.58-1.02c.54-.3,1.44-.54,1.8-1.14.24-.3.06-.72-.06-1.02a4.23,4.23,0,0,1-.54.42,1.332,1.332,0,0,1-.66.3,3.78,3.78,0,0,1-1.44.54,6.023,6.023,0,0,0,1.32-1.14,3.8,3.8,0,0,0,.96-1.44,4.64,4.64,0,0,0-2.4-.18c.48-.48,1.2-1.56.54-2.34a5.386,5.386,0,0,1-1.8,1.68,5.55,5.55,0,0,0,1.32-3,6.23,6.23,0,0,0-2.58.78h0a3.774,3.774,0,0,0,.96-2.34,11.616,11.616,0,0,0-7.5,3.48A9.553,9.553,0,0,0,24,11.08a3.309,3.309,0,0,0,0,2.28,1.521,1.521,0,0,0,1.68.96c.42,1.38-.9,1.92-2.16,1.86a2.432,2.432,0,0,0-.3-1.56c.24-.06.48-.18.48-.42-.42-.06-.66-.18-.78-.48-.24-.54.18-1.38.06-2.1a.493.493,0,0,0,.42-.06c-.3-.24-.3-.9-.24-1.44.06-1.2.48-3.06-.18-3.9a.724.724,0,0,0,.18-.48c.42,0,.3-.72.06-.9-.06.3-.78.24-.96,0,.42-.06.48-.96.06-1.14a1.4,1.4,0,0,1-.6.72,20.244,20.244,0,0,1,.54-2.04A15.036,15.036,0,0,1,23.04.7c-.42.24-.96.3-1.32.72-.24-.3-.78-.06-.9.18a.428.428,0,0,0-.42-.48c.24-.42-.18-.72-.48-.48,0-.24-.24-.42-.42-.54a.622.622,0,0,0-.24.66c-.24-.24-.66,0-.48.3-.42,0-.48.42-.48.72-.06-.42-.66-.48-.9-.18-.18-.48-.9-.42-1.2-.72a10.444,10.444,0,0,1,1.38,3.36c-.48.06-.72.42-.72.96-.66,0-1.2.24-1.2.9a1.839,1.839,0,0,0,.24,1.02,1.305,1.305,0,0,1,.96-.42c.3,0,.48.24.66.42-.54.06-1.02.48-1.62.48-.3,0-.54-.24-.72-.3a.677.677,0,0,0,.18.66c.66.66,2.04.06,2.76-.06,0,.06-.06.24,0,.24h.3a1.294,1.294,0,0,1,.96.54,1.2,1.2,0,0,1,.24,1.2,3.345,3.345,0,0,1-1.44,1.68.622.622,0,0,0,.24.66,10.955,10.955,0,0,1-.78.96c-.24.24-.66.72-1.02.66-.18,0-.24-.18-.3-.24a.841.841,0,0,0,.18,1.14,2.458,2.458,0,0,0-.54,1.68c-.96-.18-2.28-.3-2.28-1.38a1.332,1.332,0,0,1,.06-.54,1.594,1.594,0,0,0,1.44-.78,3.3,3.3,0,0,0,.42-1.68,5.766,5.766,0,0,0-1.38-3.06A25.633,25.633,0,0,0,12.06,6.7,11.273,11.273,0,0,0,5.7,4.18,5.168,5.168,0,0,0,7.32,6.76a5.394,5.394,0,0,0-3.3-.72,4.455,4.455,0,0,0,.96,1.92A10.882,10.882,0,0,0,6.42,9.4c-.48-.3-1.02-.66-1.56-.96A5.534,5.534,0,0,1,3.3,7.12a1.006,1.006,0,0,0-.18.72A2.346,2.346,0,0,0,4.08,9.4a6.777,6.777,0,0,0-1.56,0,3.055,3.055,0,0,0-1.32.3c.3.66.9,1.02,1.38,1.56a4.85,4.85,0,0,0,1.8,1.02,6.875,6.875,0,0,1-1.98-.54,4.962,4.962,0,0,1-1.38-.9c-.06,0-.06-.06-.18-.06a2.214,2.214,0,0,0,.42,1.38,2.061,2.061,0,0,0,.96.78,4.956,4.956,0,0,0-2.22.9,5.162,5.162,0,0,0,1.56,1.2,5.5,5.5,0,0,0,2.04.72,9.676,9.676,0,0,1-3.3-.3c0,1.56,1.8,1.44,3.24,1.44A10.1,10.1,0,0,0,1.5,18.1,3.94,3.94,0,0,0,.06,19.9c1.38.54,3.36,0,4.62-.24-.96.54-1.92,1.2-3,1.8a2.5,2.5,0,0,1-1.62.36,1.425,1.425,0,0,0,1.44.9,5.024,5.024,0,0,0,1.68-.54c.48-.24,1.02-.48,1.44-.72-1.2,1.68-2.52,3.3-2.4,6.3a4.838,4.838,0,0,0,1.8-.78,14.4,14.4,0,0,0,3.72-3.9c-.54,1.14-1.02,2.4-1.68,3.54a5.294,5.294,0,0,1-2.4,2.82,2.211,2.211,0,0,0,2.28-.48,9.491,9.491,0,0,0,2.4-3.66,19.422,19.422,0,0,0-.42,3.9,4.616,4.616,0,0,0,.3,1.92,10.065,10.065,0,0,0,2.34-2.88,17.315,17.315,0,0,0,1.56-3.72,26.311,26.311,0,0,1-.96,4.26.677.677,0,0,0,.48-.06,2.681,2.681,0,0,0,.96-1.2,10.246,10.246,0,0,0,.54-1.62c.06.06.06.18.18.18a4.688,4.688,0,0,0,1.32-1.8,12.778,12.778,0,0,0,.66-2.52,2.638,2.638,0,0,0,2.16-.3,2.549,2.549,0,0,1,.3,1.02,1.627,1.627,0,0,0-1.8-.24A2.147,2.147,0,0,0,15,23.68a3.413,3.413,0,0,1-.18.96,3.3,3.3,0,0,1-1.56,2.1c.06.06.24.06.42.06a6.086,6.086,0,0,1-.54.78.059.059,0,0,0-.06.06.361.361,0,0,0,.24.06,1.991,1.991,0,0,1-.96.9.686.686,0,0,0,.42.18,1.82,1.82,0,0,1-1.02.78,3.2,3.2,0,0,0,1.8.48,2.457,2.457,0,0,1-1.2,1.14.686.686,0,0,0,.42.18,2.379,2.379,0,0,1-1.32.9c.06.06.24.06.3.06a2.082,2.082,0,0,1-1.2.9c.06.18.3.24.54.24-.24.42-.72.48-1.2.54.06.18.24.24.42.3-.66.72-1.8-.06-2.82.06-.3-.72-1.8-.54-1.86.24-.24.06-.48.24-.42.36-.42.42-.3,1.44.24,1.56,0-.48.3-.66.54-.9a.963.963,0,0,0,1.08-.24,2.824,2.824,0,0,1,.96.24.585.585,0,0,0-.54.24c-.18.06-.3.3-.48.3s-.3-.06-.48-.06a.8.8,0,0,0-.48.18c-.06.06-.3.3-.3.48a2.431,2.431,0,0,0,0,.66.379.379,0,0,0,.06.42.99.99,0,0,0,.54.78,1.446,1.446,0,0,0,.9.24c-.06-.18-.18-.24-.24-.42s0-.42-.06-.66a.92.92,0,0,0,.54-.72,6.556,6.556,0,0,0,1.02-.3c.06,0,.18-.18.24-.06a.6.6,0,0,1-.06.18,1.194,1.194,0,0,0-.48.72c-.54-.06-.9.3-.9.9a.808.808,0,0,0,.3.54c-.06.24.06.42.24.42a.983.983,0,0,0,1.62.3c-.24-.06-.96-.72-.42-.9a.8.8,0,0,0,.06-.96,14.345,14.345,0,0,0,1.32-1.38,5.78,5.78,0,0,0,1.02,0c0,.18-.06.18-.06.3a.478.478,0,0,0,.42.54,1.49,1.49,0,0,1-.06.54l-.24.24c.48.24,1.32.06,1.32-.54.18,0,.24-.18.18-.42.3-.06.42-.48.42-.78a.92.92,0,0,0-.96-.78c-.18,0-.3.06-.48.06-.24-.06-.24-.42-.06-.54.06-.18.24-.3.42-.48.48-.54.78-.96,1.32-1.62.48-.54,1.02-1.2,1.56-1.8l.24-.24.18.18a1.665,1.665,0,0,0,1.44.66,2.134,2.134,0,0,1-.3-1.14c.18.06.3.24.54.24a4.584,4.584,0,0,1,1.32-4.2,9.849,9.849,0,0,1-1.2,4.74,1.52,1.52,0,0,0,1.2-.54,2.644,2.644,0,0,1-.48,1.68,1.435,1.435,0,0,1-1.2.9,1.69,1.69,0,0,1-.66-.24,1.466,1.466,0,0,0,.3,1.56,1.732,1.732,0,0,0,1.62-.18,2.753,2.753,0,0,1-.9,1.32c-.42.24-1.2.54-1.68.18-.3-.24-.24-.9-.06-1.2a1.445,1.445,0,0,0-1.68,1.38,1.783,1.783,0,0,0,.72,1.56,1.764,1.764,0,0,0-.9,1.44,1.446,1.446,0,0,0,.96,1.38,2.865,2.865,0,0,0,1.92.24,4.344,4.344,0,0,0,2.58-2.1,5.348,5.348,0,0,0-.06,2.58,4.455,4.455,0,0,0,.96,1.92,8.121,8.121,0,0,0,.9-1.92,5.119,5.119,0,0,0,0-2.52,5.235,5.235,0,0,0,1.2,1.38,2.629,2.629,0,0,0,1.86.72,1.975,1.975,0,0,0,1.68-.9,1.527,1.527,0,0,0,.3-.96,1.674,1.674,0,0,0-1.02-1.44,1.8,1.8,0,0,0,.78-1.92,1.22,1.22,0,0,0-1.2-1.02c.06.06.06.24.06.42.06.66-.48.96-1.02,1.02a2.034,2.034,0,0,1-2.04-1.56,1.362,1.362,0,0,0,1.62-.18,1.08,1.08,0,0,0,.06-1.38,1.108,1.108,0,0,1-1.14.3c-.66-.3-.9-1.2-.96-2.04a1.511,1.511,0,0,0,1.2.24,6.64,6.64,0,0,1-.66-.96,9.993,9.993,0,0,1-.78-4.02c.3.54.66,1.14.96,1.8a6.315,6.315,0,0,1,.48,2.16c.3-.06.48-.42.66-.72a5.161,5.161,0,0,1-.06.96,1.553,1.553,0,0,1-.42.66c.78.24,1.38-.42,1.68-.9a35.64,35.64,0,0,0,3.3,4.02c.18.18.48.42.48.54,0,.18-.18.24-.42.24-.06,0-.24-.06-.3-.06a.79.79,0,0,0-.72,1.38V37c.06.72,1.2.96,1.62.48-.3-.06-.42-.24-.54-.54.06-.06.06-.24.06-.42.18,0,.24-.18.3-.18a1.224,1.224,0,0,0,.96-.24c.42.42.72.78,1.14,1.14a.115.115,0,0,0,.06.18.991.991,0,0,0,.42.96c-.06.18.06.3.24.42a4.363,4.363,0,0,0-.54.48,1.138,1.138,0,0,0,1.38-.3V38.8a.059.059,0,0,1,.06-.06v-.18c0-.06.06-.18,0-.24a.855.855,0,0,0-.66-1.38c-.3-.3-.72-.66-1.02-.96a6.869,6.869,0,0,1,1.14.42c.3.06.9.24,1.02.48a.361.361,0,0,1,.06.24.493.493,0,0,0,.3.3,3.709,3.709,0,0,1-.06.9c.66.06.96-.42,1.02-.96.06-.06.06-.06.06-.18,0-.06-.06-.18-.06-.24l.06-.06a.546.546,0,0,0,0-.72,1.158,1.158,0,0,0-1.56-.3,3.046,3.046,0,0,0-1.08-.54,2.017,2.017,0,0,1,1.14-.24.925.925,0,0,0,.96.06c0,.18.3.24.48.18.24.06.3.42.42.54.48-.3.42-1.44-.18-1.56a.306.306,0,0,0-.3-.24c-.18-.54-1.32-.48-1.44,0a13.952,13.952,0,0,0-1.68.3c-.18.06-.3.18-.48.18-.3.06-.54-.18-.72-.42.18-.06.3-.18.3-.3a1.6,1.6,0,0,1-1.08-.42c0-.06.06-.18.06-.24a6.036,6.036,0,0,1-.54-.96c.06-.06.18-.06.18-.24a1.789,1.789,0,0,1-1.02-.72c.06-.06.24-.18.24-.24a4.966,4.966,0,0,1-.9-.66c-.24-.3-.6-.54-.66-.9a2.811,2.811,0,0,0,1.92-.24.6.6,0,0,0,.18-.06,2.018,2.018,0,0,1-1.38-.96,1.221,1.221,0,0,0,.3-.06,2.334,2.334,0,0,1-.9-.96.545.545,0,0,0,.42-.18,2.068,2.068,0,0,1-.72-.72,1.032,1.032,0,0,0,.48-.06,3.756,3.756,0,0,1-1.44-2.34c-.24-.78-.66-2.1-1.8-2.04a2.376,2.376,0,0,0-1.14.42c.18-.3.3-.54.48-.9a2.491,2.491,0,0,0,1.86,0,5.541,5.541,0,0,0,1.62,3.78,1.661,1.661,0,0,0,.48-.3,8.607,8.607,0,0,0,.42,1.68c.24.66.54,1.38,1.44,1.32a7.908,7.908,0,0,1-.54-3.9,17.444,17.444,0,0,0,.9,3.78,5.665,5.665,0,0,0,1.8,2.88,6.712,6.712,0,0,0,.54-2.34,21.183,21.183,0,0,0,0-2.76,15.084,15.084,0,0,0,1.92,2.76,1.415,1.415,0,0,0,.96.54c.48,0,.72-.3,1.14-.42-1.68-.9-2.28-3-3.12-4.68a10.717,10.717,0,0,0,1.86,2.16,5.457,5.457,0,0,0,2.52,1.56,9.466,9.466,0,0,0-1.8-6.06,11.143,11.143,0,0,0,2.4.9c.96.24,2.04,0,2.16-.9C38.16,21.82,37.26,21.52,36.78,21.28ZM18.3,37.18a3.513,3.513,0,0,1-.9,1.2,3.4,3.4,0,0,1-1.38.72c-.72.06-1.14-.42-.96-1.2a3.572,3.572,0,0,0,3.24-.72Zm0-.12Zm0,0Zm3.24-.24a3.714,3.714,0,0,0,3.24.9.934.934,0,0,1-1.02,1.14,2.865,2.865,0,0,1-2.22-2.04Z" class="a_1585920948480" vector-effect="non-scaling-stroke"/><path transform="translate(-11.752 -3.02)" d="M31.912,8.18a2.45,2.45,0,0,0,.96.24s-.3.06-1.86-.72c0,0-1.8-.9-1.62.42h.06s0-.78.9-.48A9.468,9.468,0,0,1,31.912,8.18Z" class="b_1585920948480" vector-effect="non-scaling-stroke"/><path transform="translate(-8 -11.58)" d="M20,29.94a15.358,15.358,0,0,0,4.5.96,11.8,11.8,0,0,1-.48-2.1,5.17,5.17,0,0,0,.18,1.38h-.72a9.581,9.581,0,0,1-3.24-.96" class="c_1585920948480" vector-effect="non-scaling-stroke"/><path transform="translate(-11.6 -2.936)" d="M29,7.976h.3a.563.563,0,0,1,.66-.72,7.47,7.47,0,0,1,1.86.72,5.093,5.093,0,0,0-1.86-.78C29.18,7.136,29,7.556,29,7.976Z" class="d_1585920948480" vector-effect="non-scaling-stroke"/><path transform="translate(-13.52 -2.86)" d="M33.8,7.48a3.556,3.556,0,0,0,1.68.06.436.436,0,0,0,.3-.3c.18-.24.24-.24.24-.24s.3.66-.54.78A2.7,2.7,0,0,1,33.8,7.48Z" class="d_1585920948480" vector-effect="non-scaling-stroke"/><path transform="translate(-14.76 -3.5)" d="M36.9,8.6s.48.18.24.42v.06a.983.983,0,0,0,.96,0s.24-.18,0-.48a1,1,0,0,1-.54.18,2.325,2.325,0,0,1-.66-.18" class="d_1585920948480" vector-effect="non-scaling-stroke"/><path transform="translate(-14.316 -3.94)" d="M36.756,9.7s.54.78.3,1.02c0,0-.06.06-.24,0a4.221,4.221,0,0,1,.24,3c-.54,1.44-1.92,2.88-.9,4.14a1.8,1.8,0,0,1,.54,1.62s.54-.48-.06-1.8a2.992,2.992,0,0,1,0-1.62s.3-1.32.3-1.38c0,0,.42.66.54.78a3.541,3.541,0,0,1-.06-1.32,12.455,12.455,0,0,0,.06-3.36A1.7,1.7,0,0,0,36.756,9.7Z" class="e_1585920948480" vector-effect="non-scaling-stroke"/><path transform="translate(-14.907 -7.5)" d="M37.587,18.6s.24.42.3.42a19.642,19.642,0,0,0-.18,2.1,1.026,1.026,0,0,0,.72.72.764.764,0,0,1-1.02-.42A4.932,4.932,0,0,1,37.587,18.6Z" class="e_1585920948480" vector-effect="non-scaling-stroke"/><path transform="translate(-15.12 -9.74)" d="M37.86,24.2a3.231,3.231,0,0,1-.06.66A3.636,3.636,0,0,1,38.28,26a2.571,2.571,0,0,0,.24,1.02,5.342,5.342,0,0,0-.54-2.4v-.06h.42C38.34,24.44,38.04,24.38,37.86,24.2Z" class="d_1585920948480" vector-effect="non-scaling-stroke"/><path transform="translate(-11.88 -3.151)" d="M29.7,8.251l.24.06s0-.24.18-.3.24,0,.18.06a.3.3,0,0,0-.06.18l.3.18s0-.3.06-.3c0,0,0-.06.3,0s1.56.54,1.56.54-.06.48-.78.42a1.107,1.107,0,0,0,1.44-.3s.78,0,.9-.18a11.5,11.5,0,0,1-1.2-.06,10.923,10.923,0,0,1-2.1-.72C29.94,7.531,29.7,7.951,29.7,8.251Z" class="d_1585920948480" vector-effect="non-scaling-stroke"/><path transform="translate(-12.498 -3.34)" d="M31.278,8.2s-.18.54.3.72c.6.24.72.18.72.18L32,8.92s-.06.06-.24-.06c-.18-.06-.24-.24-.18-.66C31.638,8.38,31.458,8.26,31.278,8.2Z" class="d_1585920948480" vector-effect="non-scaling-stroke"/><path transform="translate(-10.48 -4.799)" d="M26.2,12.419a1.928,1.928,0,0,0,1.2-.06,11.145,11.145,0,0,1,1.56-.48,2.613,2.613,0,0,1,1.56.24.263.263,0,0,1,.06.18c0,.06,0,.06-.18.06-.18-.06-.24-.18-1.38-.18a2.729,2.729,0,0,0-.66.18C28.06,12.419,26.92,12.839,26.2,12.419Z" class="f_1585920948480" vector-effect="non-scaling-stroke"/><path transform="translate(-12.84 -6.642)" d="M32.1,17.862a2.71,2.71,0,0,0,1.38-1.38s.06-.06.18,0a.361.361,0,0,0,.24.06A2.252,2.252,0,0,1,32.1,17.862Z" class="g_1585920948480" vector-effect="non-scaling-stroke"/><path transform="translate(-12.44 -7.54)" d="M31.1,19.12a1.787,1.787,0,0,0,1.68-.42S31.4,20.32,31.1,19.12Z" class="g_1585920948480" vector-effect="non-scaling-stroke"/><path transform="translate(-10.96 -7.98)" d="M30.34,20.28s.66-.24.78-.48a4.681,4.681,0,0,1-2.34,2.4s-1.14.42-1.38-.48c0,0,.42.42,1.32.06A4.947,4.947,0,0,0,30.34,20.28Z" class="g_1585920948480" vector-effect="non-scaling-stroke"/><path transform="translate(-11.12 -8.78)" d="M27.92,23.3a2.069,2.069,0,0,0,1.2-.06,3.452,3.452,0,0,0,.72-.48c.24-.24.78-.9.9-.96l-.3.78a3.387,3.387,0,0,1-1.38.72,1.7,1.7,0,0,0-.78.78s-.42.66-.48.72a2.6,2.6,0,0,0,.24-.66,2.371,2.371,0,0,1,.48-.72C28.52,23.48,27.98,23.42,27.92,23.3Z" class="d_1585920948480" vector-effect="non-scaling-stroke"/><path transform="translate(-12.446 -9.7)" d="M31.646,24.1v.48s-.3.06-.3.78.18.96-.06,1.38a5.08,5.08,0,0,0-.06-.78,2.358,2.358,0,0,1-.06-1.14A1.256,1.256,0,0,1,31.646,24.1Z" class="d_1585920948480" vector-effect="non-scaling-stroke"/><path transform="translate(-10.68 -10.06)" d="M28.62,25a2.783,2.783,0,0,0-.18,1.02,1.624,1.624,0,0,0,.18.48,1.687,1.687,0,0,1,.78.9,5.6,5.6,0,0,0-.9-.9s-.18-.18-.18-.24a1.419,1.419,0,0,1-.54.48,3.453,3.453,0,0,0-.72.42,1.361,1.361,0,0,1-.06-.24s-.18-.06-.24.06H26.7a1.011,1.011,0,0,1,.48-.24c.3-.06.9-.06,1.02-.42a.947.947,0,0,0,.18-.48A2.073,2.073,0,0,1,28.62,25Z" class="d_1585920948480" vector-effect="non-scaling-stroke"/><path transform="translate(-13.24 -5.78)" d="M35.38,14.54a.059.059,0,0,0,.06-.06.6.6,0,0,1,.06-.18,6.558,6.558,0,0,1-.18,1.56,7.605,7.605,0,0,1-.72,1.38,19.287,19.287,0,0,0-.96,1.8l-.54,1.62a17.036,17.036,0,0,1,.48-1.8c.18-.42.9-1.68.96-1.86a14.419,14.419,0,0,0,.66-1.38A4.923,4.923,0,0,0,35.38,14.54Z" class="e_1585920948480" vector-effect="non-scaling-stroke"/><path transform="translate(-12.88 -8.94)" d="M33.7,22.2a3.383,3.383,0,0,0,.18,1.2s-.48.66-.66.72a.844.844,0,0,1-1.02.24,1.939,1.939,0,0,0,.48-.42C32.8,23.7,33.4,22.26,33.7,22.2Z" class="e_1585920948480" vector-effect="non-scaling-stroke"/><path transform="translate(-13.946 -8.3)" d="M35.246,20.6s-.3.96-.06,1.38a4.292,4.292,0,0,0,.66.72l.3.42a2.164,2.164,0,0,1-.9-.48A1.52,1.52,0,0,1,35.246,20.6Z" class="g_1585920948480" vector-effect="non-scaling-stroke"/><path transform="translate(-14.12 -4.54)" d="M35.84,11.2A2.091,2.091,0,0,1,36.86,13a5.263,5.263,0,0,1-.66,2.4c-.24.42-.9,1.32-.9,1.32a11.384,11.384,0,0,0,1.32-2.82A5.131,5.131,0,0,0,35.84,11.2Z" class="g_1585920948480" vector-effect="non-scaling-stroke"/><path transform="translate(-13.875 -9.74)" d="M35.115,24.44l.54.3c.06,0,.3.18.3.24a.6.6,0,0,0,.06.18l-.06-.18-.06-.18-.78-.36c.06-.06-.18-.24-.18-.24a1.894,1.894,0,0,0-.24.96,2.383,2.383,0,0,1,.42,1.2,3,3,0,0,1-.06.66,2.783,2.783,0,0,0,.18-1.02C35.115,25.58,34.755,24.92,35.115,24.44Z" class="d_1585920948480" vector-effect="non-scaling-stroke"/><path transform="translate(-14.079 -10.5)" d="M36.339,26.1a3.788,3.788,0,0,0,.24.54,2.26,2.26,0,0,1-.72.96c-.54.42-.66.54-.66.54s-.06-.18.48-.66A1.854,1.854,0,0,0,36.339,26.1Z" class="d_1585920948480" vector-effect="non-scaling-stroke"/><path transform="translate(-12.04 -3.62)" d="M30.1,8.9a2.47,2.47,0,0,1,.96.9,2.129,2.129,0,0,0-.42-.06C30.76,9.8,30.52,9.2,30.1,8.9Z" class="g_1585920948480" vector-effect="non-scaling-stroke"/><path transform="translate(-12.56 -10.5)" d="M32.36,26.1h0c.06,0,.06.48.3.66s.9.78.9,1.2a1.042,1.042,0,0,0-.42-.66c-.3-.24-.54-.48-.54-.48a2.564,2.564,0,0,1-.54.72,1.661,1.661,0,0,0-.66.54s.06-.24.48-.54A1.632,1.632,0,0,0,32.36,26.1Z" class="d_1585920948480" vector-effect="non-scaling-stroke"/><path transform="translate(-12.92 -4.46)" d="M33.8,11s.96.66.96,1.44a3.8,3.8,0,0,1-.24,1.86c-.24.66-1.32,2.58-1.32,2.58a11.843,11.843,0,0,0-.9,2.34h0c0,.84,0-1.02,1.02-2.82s1.32-2.64,1.2-3.3A5.127,5.127,0,0,0,33.8,11Z" class="h_1585920948480" vector-effect="non-scaling-stroke"/><path transform="translate(-11.08 -11.9)" d="M28.12,32a7.65,7.65,0,0,1-.42-.72.322.322,0,0,1,.18-.24c.06-.06,0,.18.18.24,0,0,.06-.24.18-.3.06-.18.78-.66.72-1.14l-.24-.24a1.2,1.2,0,0,1-.3.9c-.42.3-.66.54-.66.72C27.7,31.34,27.88,31.7,28.12,32Z" class="d_1585920948480" vector-effect="non-scaling-stroke"/><path transform="translate(-11.96 -11.9)" d="M29.9,29.9a1.919,1.919,0,0,0,2.04-.3l.24.18A2.089,2.089,0,0,1,29.9,29.9Z" class="d_1585920948480" vector-effect="non-scaling-stroke"/><path transform="translate(-13.44 -11.94)" d="M33.6,29.94a1.831,1.831,0,0,0,1.86-.24l.06.24a1.875,1.875,0,0,1-1.92,0Z" class="d_1585920948480" vector-effect="non-scaling-stroke"/><path transform="translate(-14.745 -11.02)" d="M37.245,27.4s.72.9.48,1.38c-.18.48-.48.24-.66.06-.18-.24-.24-.54-.06-1.14a1.184,1.184,0,0,0,.18,1.38c.54.72.48.96.48.96a3.834,3.834,0,0,0,.42-1.56A2.971,2.971,0,0,0,37.245,27.4Z" class="d_1585920948480" vector-effect="non-scaling-stroke"/><path transform="translate(-11.68 -12.54)" d="M29.2,31.62a1.227,1.227,0,0,0,1.2-.42l.18.18A1.671,1.671,0,0,1,29.2,31.62Z" class="d_1585920948480" vector-effect="non-scaling-stroke"/><path transform="translate(-12.68 -12.66)" d="M31.7,31.56a2.224,2.224,0,0,0,2.04-.06l.24.18c-.06-.12-1.2.54-2.28-.12Z" class="d_1585920948480" vector-effect="non-scaling-stroke"/><path transform="translate(-14.2 -12.54)" d="M35.5,31.44a1.538,1.538,0,0,0,1.44-.24,1.361,1.361,0,0,1,.06.24,1.54,1.54,0,0,1-1.5,0Z" class="d_1585920948480" vector-effect="non-scaling-stroke"/><path transform="translate(-11.413 -13.18)" d="M29.113,32.8s-.06.24-.48.48c0,0-.18.18-.06.24a2.392,2.392,0,0,1,.18.24.388.388,0,0,1,.18-.3C28.993,33.22,29.233,33.04,29.113,32.8Z" class="d_1585920948480" vector-effect="non-scaling-stroke"/><path transform="translate(-11.76 -13.18)" d="M31.68,32.8s-.72.78-2.28,0v.12a3.326,3.326,0,0,0,1.44.42s.72,0,.96-.3C31.92,32.98,31.8,32.92,31.68,32.8Z" class="d_1585920948480" vector-effect="non-scaling-stroke"/><path transform="translate(-13.44 -13.02)" d="M35.64,32.4l.06.18a2.457,2.457,0,0,1-2.1.24h0A2.091,2.091,0,0,0,35.64,32.4Z" class="d_1585920948480" vector-effect="non-scaling-stroke"/><path transform="translate(-14.8 -12.722)" d="M37.66,31.682a2.345,2.345,0,0,1,0,.72c-.06.42-.06.48-.06.48s-.54-.18-.6-.42a.41.41,0,0,1,.24-.24,2.179,2.179,0,0,0,.42-.54Z" class="d_1585920948480" vector-effect="non-scaling-stroke"/><path transform="translate(-14.44 -13.42)" d="M36.7,33.4a1.139,1.139,0,0,0,.96.54,1.308,1.308,0,0,0,1.02-.54l.06.48a1.677,1.677,0,0,1-1.8.24s-.06.48-.06.54c0,0-.66-.18-.78-.66a.262.262,0,0,0,.24-.18C36.4,33.76,36.46,33.4,36.7,33.4Z" class="d_1585920948480" vector-effect="non-scaling-stroke"/><path transform="translate(-14.32 -14.055)" d="M36.46,35.295a4.09,4.09,0,0,0-.42-.3c-.06-.06-.24.24-.24.42.06.18.06.42.24.48Z" class="d_1585920948480" vector-effect="non-scaling-stroke"/><path transform="translate(-12.32 -13.74)" d="M33.68,34.2l.18.24a3.25,3.25,0,0,1-3.06,0v-.06a2.625,2.625,0,0,0,1.44.42A4.352,4.352,0,0,0,33.68,34.2Z" class="d_1585920948480" vector-effect="non-scaling-stroke"/><path transform="translate(-11.8 -13.78)" d="M30.04,34.3l.18.18a1.925,1.925,0,0,1-.54.72l-.18-.24C29.5,34.84,29.98,34.6,30.04,34.3Z" class="d_1585920948480" vector-effect="non-scaling-stroke"/><path transform="translate(-12.04 -14.46)" d="M30.1,36.42l.42-.42s.18.18.24.18h0c.06,0-.18.06-.24.24-.06.06-.24.3-.24.3Z" class="d_1585920948480" vector-effect="non-scaling-stroke"/><path transform="translate(-12.44 -14.42)" d="M31.1,36.14a.881.881,0,0,0,.72.06c.48-.06.54-.3.54-.3l.18.18A1.269,1.269,0,0,1,31.1,36.14Z" class="d_1585920948480" vector-effect="non-scaling-stroke"/><path transform="translate(-13.68 -14.54)" d="M35.16,36.2l.18.18a1.763,1.763,0,0,1-1.14-.06C34.2,36.26,34.74,36.44,35.16,36.2Z" class="d_1585920948480" vector-effect="non-scaling-stroke"/><path transform="translate(-13.16 -14.9)" d="M34.22,37.1l.18.18a9.593,9.593,0,0,0-.42,1.44c-.06.66-.42,2.64-.42,2.64s.06-1.68,0-2.28a3.823,3.823,0,0,1,0-1.2c0-.18-.06-.3-.24-.3-.18-.06-.3,0-.42-.18A1.383,1.383,0,0,0,34.22,37.1Z" class="d_1585920948480" vector-effect="non-scaling-stroke"/><path transform="translate(-13.32 -15.14)" d="M34.8,37.7h0a12.414,12.414,0,0,0-.3,1.8c-.12.78-.18,1.5-.18,1.5a8.325,8.325,0,0,1-.48,2.52,4.557,4.557,0,0,1-.54.9v-.66s.54-.24.78-1.8c0,0,.24-2.28.24-2.34A12.63,12.63,0,0,1,34.8,37.7Z" class="d_1585920948480" vector-effect="non-scaling-stroke"/><path transform="translate(-12.36 -14.98)" d="M31.26,37.3s.24.24.42.24c0,0-.24,0-.24.18a6.768,6.768,0,0,1,.24,1.8c0,.96.06,2.04.06,2.1a6.373,6.373,0,0,0,.24,1.14c.06.06-.24.06-.42-1.2s-.06-1.92-.18-2.34a3.978,3.978,0,0,0-.48-1.56Z" class="g_1585920948480" vector-effect="non-scaling-stroke"/><path transform="translate(-10.96 -15.34)" d="M29.2,38.2a34.732,34.732,0,0,1,.48,3.48,7.129,7.129,0,0,0-1.2,1.68,5.416,5.416,0,0,0-.3,2.4s-.78-.18-.78-1.44a8.168,8.168,0,0,1,.06-.96.83.83,0,0,0,.9-.3,4.223,4.223,0,0,0,.9-1.38,3.873,3.873,0,0,0,.24-1.44A15.256,15.256,0,0,1,29.2,38.2Z" class="d_1585920948480" vector-effect="non-scaling-stroke"/><path transform="translate(-11.8 -17.66)" d="M30.7,44a5.909,5.909,0,0,0,.72,2.34A5.208,5.208,0,0,1,31,47.36s.06-.3-.06-.3c-.18,0-.96,1.56-1.44,1.86a11.033,11.033,0,0,0,1.14-1.68,4.391,4.391,0,0,0,.24-1.62C30.76,44.96,30.7,44,30.7,44Z" class="d_1585920948480" vector-effect="non-scaling-stroke"/><path transform="translate(-13.36 -19.5)" d="M33.64,48.6s-.24,2.82-.24,3.54V48.9Z" class="d_1585920948480" vector-effect="non-scaling-stroke"/><path transform="translate(-13.04 -20.06)" d="M33.68,50a4.823,4.823,0,0,0,.66,1.14h-.06s-.18-.18-.18,0a10.008,10.008,0,0,1-.96,3.24v-.66a1.817,1.817,0,0,1-.54-1.26,3.92,3.92,0,0,0,.54,1.2,11.145,11.145,0,0,0,.66-1.8A7.968,7.968,0,0,0,33.68,50Z" class="d_1585920948480" vector-effect="non-scaling-stroke"/><path transform="translate(-12.918 -22.22)" d="M33.5,55.4l.24.3a10.451,10.451,0,0,1,.3,2.88,4.35,4.35,0,0,1-1.02,3v-.42a7.022,7.022,0,0,1-.72-3.24,9.79,9.79,0,0,0,.72,3.06,3.475,3.475,0,0,0,.66-1.62,10.3,10.3,0,0,0-.24-3.78Z" class="d_1585920948480" vector-effect="non-scaling-stroke"/><path transform="translate(-12.918 -22.22)" d="M33.5,55.4l.24.3a10.451,10.451,0,0,1,.3,2.88,4.35,4.35,0,0,1-1.02,3v-.42a7.022,7.022,0,0,1-.72-3.24,9.79,9.79,0,0,0,.72,3.06,3.475,3.475,0,0,0,.66-1.62,10.3,10.3,0,0,0-.24-3.78Z" class="d_1585920948480" vector-effect="non-scaling-stroke"/><path transform="translate(-13.24 -22.78)" d="M33.1,56.8l.24.42.18-.3-.18,3.78-.06-1.98S33.1,57.04,33.1,56.8Z" class="g_1585920948480" vector-effect="non-scaling-stroke"/><path transform="translate(-13.24 -26.14)" d="M33.1,65.32s.18.24.24.3c.06,0,.3-.42.3-.42l-.3,2.52Z" class="g_1585920948480" vector-effect="non-scaling-stroke"/><path transform="translate(-13.88 -17.7)" d="M34.94,44.1a7.353,7.353,0,0,1-.24,1.68s.18,3,1.44,3.06h0a6.14,6.14,0,0,1-.9-1.86A10.965,10.965,0,0,1,34.94,44.1Z" class="g_1585920948480" vector-effect="non-scaling-stroke"/><path transform="translate(-13.84 -21.9)" d="M34.66,54.6a1.885,1.885,0,0,0,.24.72,4.966,4.966,0,0,0,.9.66.921.921,0,0,1-.72-.48,2.574,2.574,0,0,1-.48-.66Z" class="g_1585920948480" vector-effect="non-scaling-stroke"/><path transform="translate(-13.96 -21.053)" d="M35.2,52.493a5.918,5.918,0,0,0,.42,1.32c.24.3.72.96,1.2.96,0,0-.9.42-1.62-.9l-.3-.42C34.96,53.333,35.02,52.373,35.2,52.493Z" class="g_1585920948480" vector-effect="non-scaling-stroke"/><path transform="translate(-11.72 -20.14)" d="M30.86,50.2s0,1.44.06,1.8c.06.3.24,1.02.24,1.2a1.463,1.463,0,0,1-1.08.72s.78-.48.78-1.02v-.24l-.24.42a1.593,1.593,0,0,1-1.32.9,1.219,1.219,0,0,0,1.02-.78,4.827,4.827,0,0,0,.3-1.14l-.06-.78s-.18,1.62-.96,1.92a2.628,2.628,0,0,0,.66-1.32A9.738,9.738,0,0,0,30.86,50.2Z" class="g_1585920948480" vector-effect="non-scaling-stroke"/><path transform="translate(-10.92 -22.18)" d="M30.42,55.3l.06.24a4,4,0,0,1-1.32,1.02c-.66.24-1.62.3-1.86-.9a1.171,1.171,0,0,0,1.56.78A2.687,2.687,0,0,0,30.42,55.3Z" class="d_1585920948480" vector-effect="non-scaling-stroke"/><path transform="translate(-11 -22.82)" d="M30.44,56.9a6.874,6.874,0,0,0-.3,1.56s-.42.66-.72.78c0,0,.54-.54.42-.72,0,0-.06,0-.3.24-.24.3-1.32,1.14-2.04.96a2.616,2.616,0,0,0,1.86-1.02A8.118,8.118,0,0,0,30.44,56.9Z" class="g_1585920948480" vector-effect="non-scaling-stroke"/><path transform="translate(-9.517 -23.3)" d="M24.937,58.1a1.3,1.3,0,0,0-.3,1.62s-.48-.24-.24-1.02c0,0,.06-.24-.24,0a1.5,1.5,0,0,0,.54,2.1,1.356,1.356,0,0,1-.9-1.02A1.432,1.432,0,0,1,24.937,58.1Z" class="g_1585920948480" vector-effect="non-scaling-stroke"/><path transform="translate(-10.44 -23.9)" d="M29.46,59.6v.48a4.652,4.652,0,0,1-1.92,1.38,2.716,2.716,0,0,1-1.44.06,3.041,3.041,0,0,0,2.16-.54A6.556,6.556,0,0,0,29.46,59.6Z" class="d_1585920948480" vector-effect="non-scaling-stroke"/><path transform="translate(-10.92 -24.42)" d="M30.06,60.9a4.846,4.846,0,0,0,.18,1.14,6.078,6.078,0,0,1-1.56,1.92,8.853,8.853,0,0,0,1.38-1.92s-1.14,2.04-2.76,2.1a3.507,3.507,0,0,0,2.34-1.8C29.58,62.34,29.94,61.56,30.06,60.9Z" class="g_1585920948480" vector-effect="non-scaling-stroke"/><path transform="translate(-9.4 -25.22)" d="M24.22,62.9a1.409,1.409,0,0,0,1.02,2.04,1.187,1.187,0,0,1-.78-.18c-.42-.24-.66.18-.18.48a1.3,1.3,0,0,1-.78-1.2A1.36,1.36,0,0,1,24.22,62.9Z" class="g_1585920948480" vector-effect="non-scaling-stroke"/><path transform="translate(-10.2 -25.22)" d="M29.46,62.9l.18.42a5.85,5.85,0,0,1-1.86,2.16,3.074,3.074,0,0,1-2.28.3s1.02.18.72-.06a2.6,2.6,0,0,0-.3-.06,4.093,4.093,0,0,0,.72-.06,2.84,2.84,0,0,0,1.44-.72A6.253,6.253,0,0,0,29.46,62.9Z" class="d_1585920948480" vector-effect="non-scaling-stroke"/><path transform="translate(-13.92 -22.5)" d="M34.8,56.1a1.922,1.922,0,0,0,.66.72,2.427,2.427,0,0,0,.96,1.92,2.05,2.05,0,0,0,1.92.42,1.992,1.992,0,0,1-2.16-.42A4.4,4.4,0,0,1,34.8,56.1Z" class="g_1585920948480" vector-effect="non-scaling-stroke"/><path transform="translate(-16.28 -23.18)" d="M41.12,57.8s1.8,1.14-.42,2.4C40.82,60.26,42.5,59.42,41.12,57.8Z" class="g_1585920948480" vector-effect="non-scaling-stroke"/><path transform="translate(-15.68 -23.46)" d="M41.12,58.5a1.593,1.593,0,0,1-.54,2.28,2.055,2.055,0,0,1-1.38.18,1.643,1.643,0,0,0,1.68-.24A1.56,1.56,0,0,0,41.12,58.5Z" class="d_1585920948480" vector-effect="non-scaling-stroke"/><path transform="translate(-14.08 -23.9)" d="M35.2,59.6a2.892,2.892,0,0,0,1.56,1.38,4.881,4.881,0,0,0,1.14.24,3.221,3.221,0,0,1-1.86-.54,4.654,4.654,0,0,1-.78-.78v-.3Z" class="d_1585920948480" vector-effect="non-scaling-stroke"/><path transform="translate(-14 -24.66)" d="M35.12,61.5a4.9,4.9,0,0,0,1.92,2.64A5.246,5.246,0,0,1,35,61.74Z" class="g_1585920948480" vector-effect="non-scaling-stroke"/><path transform="translate(-15.8 -25.3)" d="M40.88,63.1s.54.96-.06,1.56a1.285,1.285,0,0,1-1.32.42,1.683,1.683,0,0,0,1.56-.42A1.166,1.166,0,0,0,40.88,63.1Z" class="d_1585920948480" vector-effect="non-scaling-stroke"/><path transform="translate(-15.16 -25.62)" d="M40.9,63.9a1.571,1.571,0,0,1-.96,2.04,2.489,2.489,0,0,1-1.62,0l-.42-.06a2.309,2.309,0,0,0,1.86.3A1.589,1.589,0,0,0,40.9,63.9Z" class="d_1585920948480" vector-effect="non-scaling-stroke"/><path transform="translate(-9.12 -16.06)" d="M23.1,42.7s1.62-.18,1.92-1.14c0,0,1.14.06,2.16-1.56a3.922,3.922,0,0,1-2.34,1.92,3.561,3.561,0,0,1-2.04,1.02Z" class="d_1585920948480" vector-effect="non-scaling-stroke"/><path transform="translate(-8.96 -17.3)" d="M22.58,44.9a2.782,2.782,0,0,0,2.28-1.02,2.61,2.61,0,0,0,1.8-.78,2.611,2.611,0,0,1-1.92,1.02,3.465,3.465,0,0,1-2.34,1.02Z" class="d_1585920948480" vector-effect="non-scaling-stroke"/><path transform="translate(-8.48 -18.06)" d="M24.2,45.66A2.3,2.3,0,0,0,25.88,45a2.318,2.318,0,0,1-1.8.96A3.006,3.006,0,0,1,21.2,47.1l.24-.24A2.868,2.868,0,0,0,24.2,45.66Z" class="d_1585920948480" vector-effect="non-scaling-stroke"/><path transform="translate(-10.279 -18.78)" d="M25.939,47.22s.06.48.72-.42c0,0-.9,1.62.3,2.4,0,0-.9.18-.24.78C26.719,50.04,25.1,49.44,25.939,47.22Z" class="g_1585920948480" vector-effect="non-scaling-stroke"/><path transform="translate(-8.84 -19.3)" d="M24.26,48.1a2.566,2.566,0,0,1-2.16.9s.66.18,0,.24A2.172,2.172,0,0,0,24.26,48.1Z" class="d_1585920948480" vector-effect="non-scaling-stroke"/><path transform="translate(-9.32 -20.22)" d="M23.54,50.4l.06.72-.3.18A2.412,2.412,0,0,0,23.54,50.4Z" class="g_1585920948480" vector-effect="non-scaling-stroke"/><path transform="translate(-9.56 -19.66)" d="M24.8,49a2.791,2.791,0,0,0,.24,1.38l-.9.42-.24-.18a4.492,4.492,0,0,0,.78-1.56Z" class="d_1585920948480" vector-effect="non-scaling-stroke"/><path transform="translate(-7.686 -20.78)" d="M22.386,51.86l-.24-.06a28,28,0,0,1-1.8,2.16c-.42.42-1.56,1.62-.96,2.1a1.671,1.671,0,0,1,.06-.72,9.815,9.815,0,0,1,1.14-1.44C21.006,53.42,22.266,52.04,22.386,51.86Z" class="g_1585920948480" vector-effect="non-scaling-stroke"/><path transform="translate(-5.36 -23.34)" d="M16.58,58.2s-.06.42,0,.42.24.06.24.18c0,.06-.18,0-.3.24-.18.24-.24.42-.42.42a2.661,2.661,0,0,1-.66.78,2.227,2.227,0,0,0-.66.78c0,.24.3.78-.48,1.14a.7.7,0,0,1-.9-.42s.9.18.72-.96a1.93,1.93,0,0,1,.48.06,4.231,4.231,0,0,1,.54-.9A6.349,6.349,0,0,0,16.58,58.2Z" class="d_1585920948480" vector-effect="non-scaling-stroke"/><path transform="translate(-8.48 -24.834)" d="M21.2,62.034a.8.8,0,0,0,.3-.06c.06-.06.18-.06.18.06C21.74,62.214,21.56,62.394,21.2,62.034Z" class="g_1585920948480" vector-effect="non-scaling-stroke"/><path transform="translate(-8.098 -23.898)" d="M20.7,61.038a.521.521,0,0,0,.06-.78.413.413,0,0,0-.3-.24c-.24-.06-.3-.24-.06-.3a.863.863,0,0,1,1.32.66C21.718,61.1,20.7,61.038,20.7,61.038Z" class="d_1585920948480" vector-effect="non-scaling-stroke"/><path transform="translate(-4.13 -23.34)" d="M14.87,58.2a4.6,4.6,0,0,1-3,2.04.864.864,0,0,1-1.32.54s-.72-.48.42-.66c0,0,.48,0,.54-.3a3.69,3.69,0,0,0,1.38-.18,5.1,5.1,0,0,0,1.2-.78C14.27,58.68,14.87,58.2,14.87,58.2Z" class="g_1585920948480" vector-effect="non-scaling-stroke"/><path transform="translate(-4.12 -25.18)" d="M10.42,62.8a.788.788,0,0,0,.54.18,2.253,2.253,0,0,1-.66,0A.743.743,0,0,1,10.42,62.8Z" class="g_1585920948480" vector-effect="non-scaling-stroke"/><path transform="translate(-4.076 -22.918)" d="M11.4,57.178s-.24.48-.54.54-.72-.06-.66.3a.723.723,0,0,0,.72.48,1.012,1.012,0,0,0,.42-.24c.24-.24.54-.42.72-.3a1.338,1.338,0,0,1-.3.18c-.18.06,0,.24.06.24a1.457,1.457,0,0,0,.96.06,3.273,3.273,0,0,0,1.02-.66,7.833,7.833,0,0,1-1.02-.06c-.42-.06-.78-.24-.96-.24s-.18-.06-.18-.06C11.636,57.3,11.516,57.058,11.4,57.178Z" class="g_1585920948480" vector-effect="non-scaling-stroke"/><path transform="translate(-3.91 -23.406)" d="M9.91,58.386a1.042,1.042,0,0,0,.42.66s-.42-.18-.54-.24c0,0-.06-.06.06,0C9.79,58.686,9.79,58.266,9.91,58.386Z" class="g_1585920948480" vector-effect="non-scaling-stroke"/><path transform="translate(-8.435 -20.82)" d="M21.455,52.14a3.039,3.039,0,0,0,1.2-.24,6.006,6.006,0,0,1-1.56.66C21.035,52.5,21.335,52.26,21.455,52.14Z" class="d_1585920948480" vector-effect="non-scaling-stroke"/><path transform="translate(-7.84 -21.58)" d="M19.84,53.98a3.95,3.95,0,0,0,1.2-.18,2.282,2.282,0,0,1-1.44.48C19.72,54.22,19.78,54.04,19.84,53.98Z" class="d_1585920948480" vector-effect="non-scaling-stroke"/><path transform="translate(-7.48 -22.22)" d="M18.88,55.64a2.815,2.815,0,0,0,1.14-.24,2.13,2.13,0,0,1-1.32.48S18.88,55.7,18.88,55.64Z" class="d_1585920948480" vector-effect="non-scaling-stroke"/><path transform="translate(-6.76 -22.78)" d="M16.9,56.8a4.329,4.329,0,0,0,1.56.06,2.657,2.657,0,0,1-1.14.24A.474.474,0,0,1,16.9,56.8Z" class="d_1585920948480" vector-effect="non-scaling-stroke"/><path transform="translate(-15.16 -16.58)" d="M37.9,41.3a2.36,2.36,0,0,0,1.44.66s.66.78,1.32.78l.18.24a2.957,2.957,0,0,1-1.38-.78C39.52,42.2,38.26,41.96,37.9,41.3Z" class="d_1585920948480" vector-effect="non-scaling-stroke"/><path transform="translate(-15.12 -17.18)" d="M37.8,42.8a2.255,2.255,0,0,0,1.38.54,2.4,2.4,0,0,0,1.32.78l.54.06.18.24a4.3,4.3,0,0,1-1.8-.9A2.162,2.162,0,0,1,37.8,42.8Z" class="d_1585920948480" vector-effect="non-scaling-stroke"/><path transform="translate(-15.28 -17.94)" d="M38.2,44.7s.9.54,1.38.42a1.485,1.485,0,0,0,.72.66,3.261,3.261,0,0,0,1.44.24l.18.24a6.109,6.109,0,0,1-1.38-.3c-.54-.24-.78-.48-.96-.54C39.46,45.3,38.44,44.94,38.2,44.7Z" class="d_1585920948480" vector-effect="non-scaling-stroke"/><path transform="translate(-16.56 -19.3)" d="M44.46,48.4s-.54.54-2.16.3c0,0,.72-.06.24-.18a5.832,5.832,0,0,1-1.14-.42,4.133,4.133,0,0,0,1.56.3,1.87,1.87,0,0,0,1.02-.18A2.651,2.651,0,0,1,44.46,48.4Z" class="d_1585920948480" vector-effect="non-scaling-stroke"/><path transform="translate(-15.4 -18.82)" d="M38.5,48.46a4.234,4.234,0,0,0,.48-1.56A2.878,2.878,0,0,1,38.5,49v-.54Z" class="d_1585920948480" vector-effect="non-scaling-stroke"/><path transform="translate(-15.28 -18.98)" d="M39.46,47.3a2.556,2.556,0,0,0,1.44.96,1.406,1.406,0,0,1,.18.96l-1.02-1.2a3.208,3.208,0,0,1-.54,1.56,1.486,1.486,0,0,1-1.32.66,1.477,1.477,0,0,0,1.2-.78A2.615,2.615,0,0,0,39.46,47.3Z" class="d_1585920948480" vector-effect="non-scaling-stroke"/><path transform="translate(-16.4 -20.06)" d="M41,50a1.718,1.718,0,0,0,1.14.42.445.445,0,0,1-.48.06,1.861,1.861,0,0,0,2.1.42s-.24.78-1.68,0a1.629,1.629,0,0,0,.9.78,1.684,1.684,0,0,0,1.44.06l.18.06a.235.235,0,0,1-.24.24,2.673,2.673,0,0,1-1.68-.48s1.2,1.8,2.58,1.38l.18.06-.06.24a2.667,2.667,0,0,1-1.8-.66,3.257,3.257,0,0,0,1.32,1.14,2.124,2.124,0,0,0,1.32-.06h.24s-.06.48-.78.3c-.78-.06-.96-.3-.96-.3a3.518,3.518,0,0,1,.48.96,6.714,6.714,0,0,0-.72-1.02c-.42-.42-1.14-1.32-1.14-1.32s-1.14-1.38-1.32-1.56A3.181,3.181,0,0,1,41,50Z" class="d_1585920948480" vector-effect="non-scaling-stroke"/><path transform="translate(-20.64 -22.415)" d="M51.6,56.735s.24-.06.9-.18a1.457,1.457,0,0,0,.66-.24c.18-.18.18-.48.78-.42,0,0,.3,0,.54.42,0,0,.24,0,.3.18a1.66,1.66,0,0,0-.06.48c0,.24-.06.54-.42.48,0,0,.06-.24-.06-.18-.18.06-.18,0-.18-.06a.456.456,0,0,1-.54.18.263.263,0,0,0,.06-.18s.42-.06.42-.42c-.06-.3-.42-.42-.54-.3-.18.06-.3.42-.48.42C52.68,56.915,51.84,56.735,51.6,56.735Z" class="g_1585920948480" vector-effect="non-scaling-stroke"/><path transform="translate(-20.28 -23.5)" d="M52.86,60.34a.813.813,0,0,0,.72.3c.54,0,.48-.24.48-.24a.662.662,0,0,0,0-.9,1.036,1.036,0,0,0-1.38-.18s0,.06-.18-.06a7.621,7.621,0,0,0-1.56-.66s1.44.54,1.44.78c.06.24-.48,0-.48,0a6.16,6.16,0,0,0-1.2-.48,11.649,11.649,0,0,1,1.56.78,1.312,1.312,0,0,0,.3.18c.06-.06.54-.42.66,0C53.52,60.16,52.98,60.4,52.86,60.34Z" class="g_1585920948480" vector-effect="non-scaling-stroke"/><path transform="translate(-20.28 -24.18)" d="M50.7,60.3a.059.059,0,0,0,.06.06c.06.06.48.42.48.78,0,0,.24-.24.24.06,0,0,.72.54-.18,1.2,0,0,.24.06.24.24a.262.262,0,0,1-.24.18s.06.18.3.06a2.248,2.248,0,0,1,.48-.06.263.263,0,0,0,.06-.18s.06-.18,0-.24a.962.962,0,0,0,.06-.9.948.948,0,0,0-.72-.48Z" class="g_1585920948480" vector-effect="non-scaling-stroke"/><path transform="translate(-18.12 -24.495)" d="M45.3,61.455s.18,0,.24-.06.24-.06.24-.06.06-.3-.06-.24A1.359,1.359,0,0,0,45.3,61.455Z" class="g_1585920948480" vector-effect="non-scaling-stroke"/><path transform="translate(-17.92 -23.66)" d="M45.94,59.78s1.14.42,1.2-.78c0,0-.18.9-1.32.48,0,0-.78-.3-.9.24,0,0,0,.06.18.24.18.06-.06.42-.3.42C44.8,60.26,45.76,60.5,45.94,59.78Z" class="g_1585920948480" vector-effect="non-scaling-stroke"/><path transform="translate(-16.24 -13.14)" d="M40.6,33.48s.9.3.54-.06v-.06s.54.18,1.26-.66a2.6,2.6,0,0,1,.06.3,2.056,2.056,0,0,1-.54.54,6.565,6.565,0,0,0,.54,1.86c.42.54.72.96.9,1.14a2.366,2.366,0,0,1-.78-.9,4.469,4.469,0,0,1-.66-2.04l-.24.06s.06.72.18.78l.18,2.76-.54-3.54a1.343,1.343,0,0,1-.9-.18Z" class="i_1585920948480" vector-effect="non-scaling-stroke"/><path transform="translate(-17.16 -15.74)" d="M42.9,40.88V40.4s.66-.18.78-1.2l.78.66.24-.18a20.971,20.971,0,0,0,.24,2.88c.18.66.3,1.02.3,1.02s-.96-.24-1.14-2.34l-.18-1.68A2.321,2.321,0,0,1,42.9,40.88Z" class="d_1585920948480" vector-effect="non-scaling-stroke"/><path transform="translate(-17.64 -13.5)" d="M44.1,33.6l.48.12.24,2.58Z" class="g_1585920948480" vector-effect="non-scaling-stroke"/><path transform="translate(-18.2 -13.26)" d="M45.5,36.66l.06.42a3.6,3.6,0,0,0,.96-2.76l1.68,7.74L47,34.32A4.443,4.443,0,0,1,46.1,33l-.18.18A3.622,3.622,0,0,1,45.5,36.66Z" class="i_1585920948480" vector-effect="non-scaling-stroke"/><path transform="translate(-18.52 -14.58)" d="M48.04,36.3l.54.24s1.44,5.82.06,8.64v-.66s-1.62-.78-2.34-6.54v-.06s.66,5.34,2.28,6.48c0,0,1.14-2.52-.18-7.8A.474.474,0,0,0,48.04,36.3Z" class="i_1585920948480" vector-effect="non-scaling-stroke"/><path transform="translate(-20.12 -14.74)" d="M50.3,36.7l.78.24s.42,1.14.48,1.32c.06.06.54,1.02.78,1.56a7.461,7.461,0,0,0,2.58,3.48s-1.14.48-2.28-1.44c-1.08-1.98-1.92-3.78-1.92-3.78Z" class="g_1585920948480" vector-effect="non-scaling-stroke"/><path transform="translate(-17.52 -5.26)" d="M47.52,13a3.946,3.946,0,0,0-2.28,1.68,2.944,2.944,0,0,1,.66.06L47.52,13,46.2,14.92a2.1,2.1,0,0,1,.66.66,1.524,1.524,0,0,1,1.38.42,1.308,1.308,0,0,1,.3,1.62,1.814,1.814,0,0,1,.54,1.56c-.18.9-.66,1.02-.66,1.02a2.452,2.452,0,0,1,.18,1.56,1.171,1.171,0,0,1-.72.78,3.36,3.36,0,0,1-.72,1.44,2.58,2.58,0,0,1-1.32.42,1.731,1.731,0,0,1-2.04.9v-.06s.72.3.72.06c0,0,0-.06-.3-.06,0,0-.24,0-.3-.18a1.46,1.46,0,0,0,1.86-.9,1.887,1.887,0,0,0,1.44-.54,1.4,1.4,0,0,0,.3-1.2,1.186,1.186,0,0,0,.78-.96,2.756,2.756,0,0,0-.24-1.32s.78-.24.72-1.44a1.207,1.207,0,0,0-.54-.9,1.208,1.208,0,0,0-.18-1.38A1.674,1.674,0,0,0,46.62,16a1.412,1.412,0,0,0-1.2-.9s.54-.06.24-.24a1.234,1.234,0,0,0-.54,0l.18-.18A3.723,3.723,0,0,1,47.52,13Z" class="i_1585920948480" vector-effect="non-scaling-stroke"/><path transform="translate(-17.52 -5.26)" d="M47.52,13a3.946,3.946,0,0,0-2.28,1.68,2.944,2.944,0,0,1,.66.06L47.52,13,46.2,14.92a2.1,2.1,0,0,1,.66.66,1.524,1.524,0,0,1,1.38.42,1.308,1.308,0,0,1,.3,1.62,1.814,1.814,0,0,1,.54,1.56c-.18.9-.66,1.02-.66,1.02a2.452,2.452,0,0,1,.18,1.56,1.171,1.171,0,0,1-.72.78,3.36,3.36,0,0,1-.72,1.44,2.58,2.58,0,0,1-1.32.42,1.731,1.731,0,0,1-2.04.9v-.06s.72.3.72.06c0,0,0-.06-.3-.06,0,0-.24,0-.3-.18a1.46,1.46,0,0,0,1.86-.9,1.887,1.887,0,0,0,1.44-.54,1.4,1.4,0,0,0,.3-1.2,1.186,1.186,0,0,0,.78-.96,2.756,2.756,0,0,0-.24-1.32s.78-.24.72-1.44a1.207,1.207,0,0,0-.54-.9,1.208,1.208,0,0,0-.18-1.38A1.674,1.674,0,0,0,46.62,16a1.412,1.412,0,0,0-1.2-.9s.54-.06.24-.24a1.234,1.234,0,0,0-.54,0l.18-.18A3.723,3.723,0,0,1,47.52,13Z" class="i_1585920948480" vector-effect="non-scaling-stroke"/><path transform="translate(-19.48 -5.1)" d="M49.84,12.6a2.807,2.807,0,0,1-.18,1.92,8.369,8.369,0,0,1,1.38-.48,4.56,4.56,0,0,0-2.28,1.38H48.7a3.334,3.334,0,0,0,.78-2.52Z" class="i_1585920948480" vector-effect="non-scaling-stroke"/><path transform="translate(-19.04 -12.86)" d="M47.6,32.06l1.92,2.22L48.02,32Z" class="g_1585920948480" vector-effect="non-scaling-stroke"/><path transform="translate(-19.92 -12.42)" d="M49.86,30.9a3.465,3.465,0,0,0,2.16,1.32,2.409,2.409,0,0,1-.9-.18l3.96,6.36-4.5-6.54a5.9,5.9,0,0,1,.24,2.58l-.24-.48a4.374,4.374,0,0,0-.78-3.06Z" class="i_1585920948480" vector-effect="non-scaling-stroke"/><path transform="translate(-20.96 -13.3)" d="M53.66,33.1h.42s1.2,1.86,1.62,2.52a8.678,8.678,0,0,1,1.26,3.42,5.28,5.28,0,0,1,.06,1.8l-.24-.54s-1.62,0-4.38-4.26c0,0,2.76,4.02,4.38,4.14C56.6,40.12,57.26,38.02,53.66,33.1Z" class="i_1585920948480" vector-effect="non-scaling-stroke"/><path transform="translate(-20.4 -6.14)" d="M51.24,17,51,16.82l1.92-1.62a3.428,3.428,0,0,1-1.38,3.12,2.6,2.6,0,0,0,.06-.3,3.121,3.121,0,0,0,.96-2.4Z" class="i_1585920948480" vector-effect="non-scaling-stroke"/><path transform="translate(-20.68 -9.58)" d="M54.22,29.14l-.42-.3s0-1.44-2.1-2.76v-.06s2.64.42,3.42-.9c0,0,3.24.18,3.96-1.32h.42s-.42,1.02-2.64,1.44l-1.38.12a2.9,2.9,0,0,1-2.28,1.02l5.82,2.64-5.88-2.34A4.946,4.946,0,0,1,54.22,29.14Z" class="i_1585920948480" vector-effect="non-scaling-stroke"/><path transform="translate(-20.68 -9.58)" d="M54.22,29.14l-.42-.3s0-1.44-2.1-2.76v-.06s2.64.42,3.42-.9c0,0,3.24.18,3.96-1.32h.42s-.42,1.14-2.64,1.44l-1.44.06a2.9,2.9,0,0,1-2.28,1.02l5.82,2.64-5.88-2.34A4.872,4.872,0,0,1,54.22,29.14Z" class="i_1585920948480" vector-effect="non-scaling-stroke"/><path transform="translate(-21.8 -9.38)" d="M54.5,23.3a6.8,6.8,0,0,1,1.56.9l-.3-.3s3.54-.3,4.2-.3H55.22Z" class="i_1585920948480" vector-effect="non-scaling-stroke"/><path transform="translate(-19.2 -3.42)" d="M48,11.46s1.14-.54,1.32-.66c.18-.06,3.06-2.4,3.06-2.4l-2.76,2.52A4.145,4.145,0,0,0,48,11.46Z" class="g_1585920948480" vector-effect="non-scaling-stroke"/><path transform="translate(-21.36 -4.42)" d="M53.4,13.3h.48l2.16-2.4Z" class="i_1585920948480" vector-effect="non-scaling-stroke"/><path transform="translate(-21 -6.78)" d="M55.32,18.36l-.3.18s-.3,1.38-2.52,2.28V21l1.02-.3s1.68-1.14,1.8-2.34l2.52-1.56-2.76,1.38a9.564,9.564,0,0,0-2.34.3A8.251,8.251,0,0,1,55.32,18.36Z" class="i_1585920948480" vector-effect="non-scaling-stroke"/><path transform="translate(-20.28 -2.98)" d="M54.12,7.3l-.42.3a3.956,3.956,0,0,1-1.56,2.58L50.7,11.32v.18a15.8,15.8,0,0,0,2.34-1.86A3.93,3.93,0,0,0,54.12,7.3Z" class="g_1585920948480" vector-effect="non-scaling-stroke"/><path transform="translate(-21.64 -4.06)" d="M56.98,10l-.48.42a3.586,3.586,0,0,1-.66,1.92,9.784,9.784,0,0,1-1.68,1.68l-.06.24A5.906,5.906,0,0,0,56.98,10Z" class="g_1585920948480" vector-effect="non-scaling-stroke"/><path transform="translate(-21.28 -4.94)" d="M57.1,12.2s.66.72-.66,2.28a11.354,11.354,0,0,0-3.24,1.8l.06-.18,2.28-1.62A2.978,2.978,0,0,0,57.1,12.2Z" class="g_1585920948480" vector-effect="non-scaling-stroke"/><path transform="translate(-22.6 -6.5)" d="M59.74,16.34l.48-.24a5.089,5.089,0,0,1-2.28,2.58,7.562,7.562,0,0,1-1.44.42l.06-.06A5.033,5.033,0,0,0,59.74,16.34Z" class="g_1585920948480" vector-effect="non-scaling-stroke"/><path transform="translate(-22.44 -7.58)" d="M60.54,18.8s.72.96-1.86,1.86c0,0-1.62-.06-2.58,0l1.32-.06C57.36,20.6,60.06,19.88,60.54,18.8Z" class="g_1585920948480" vector-effect="non-scaling-stroke"/><path transform="translate(-16.717 -3.18)" d="M49.957,7.8s-4.68,1.02-5.7,4.38c0,0-.54.66-.54.9a1.456,1.456,0,0,0-.48,1.44,1.214,1.214,0,0,0-.78,1.32,1.02,1.02,0,0,0,1.14.96l.24.06s-2.16.54-2.04-1.62C41.8,14.4,43.177,9.42,49.957,7.8Z" class="h_1585920948480" vector-effect="non-scaling-stroke"/><path transform="translate(-15.6 -9.22)" d="M41.52,23.62a1.672,1.672,0,0,0,1.14-.72h.06s-.18.78,0,1.02a2.331,2.331,0,0,0,1.14-.3S45,26.14,39,26.74a12.847,12.847,0,0,0,.3-1.38h.18a2.159,2.159,0,0,0,2.4-.72C41.88,24.76,42.66,24.1,41.52,23.62Z" class="h_1585920948480" vector-effect="non-scaling-stroke"/><path transform="translate(-17.301 -6.604)" d="M44.841,19.384s-.42.48-.42.78c0,0-.96-.18-1.14-.9s.54-1.2.9-1.32a1.176,1.176,0,0,1,.78-1.56,1.2,1.2,0,0,1,1.38.78l-.18.3a1.841,1.841,0,0,0-1.2-.66,2.134,2.134,0,0,0-.24,1.56,1.577,1.577,0,0,0-1.02.24,1.729,1.729,0,0,0,.78.9C44.481,19.624,44.661,19.384,44.841,19.384Z" class="g_1585920948480" vector-effect="non-scaling-stroke"/><path transform="translate(-19.24 -7.294)" d="M48.1,18.394l.18.3a1.525,1.525,0,0,1,1.02-.06,1.04,1.04,0,0,1-.3,1.02,2.457,2.457,0,0,1,1.02,1.56,2,2,0,0,1-.96.18,2.989,2.989,0,0,0,.78,0c.42-.06.42.42-.18.72,0,0,.72-.24.66-1.38a1.424,1.424,0,0,0-.54-.9,1.234,1.234,0,0,0-.06-1.32c-.18-.24-.54-.48-1.56-.42Z" class="g_1585920948480" vector-effect="non-scaling-stroke"/><path transform="translate(-19.16 -8.18)" d="M48.44,20.3a3.015,3.015,0,0,0-.54.72L50,22.04A2.8,2.8,0,0,0,48.44,20.3Z" class="i_1585920948480" vector-effect="non-scaling-stroke"/><path transform="translate(-18.12 -8.66)" d="M46.74,21.5l.18.9a2.005,2.005,0,0,1-1.62.96Z" class="i_1585920948480" vector-effect="non-scaling-stroke"/><path transform="translate(-18.294 -7.06)" d="M47.514,19.12a3.9,3.9,0,0,0-.54.66s-.66-1.68-.96-2.28a2.045,2.045,0,0,0,.06,2.04,1.968,1.968,0,0,1-.06-2.04A2.06,2.06,0,0,1,47.514,19.12Z" class="i_1585920948480" vector-effect="non-scaling-stroke"/><path transform="translate(-19.36 -7.648)" d="M49.36,19.048l-.72.72.48.24a1,1,0,0,0,.24-.96,1.19,1.19,0,0,0-.96.06A1.225,1.225,0,0,1,49.36,19.048Z" class="i_1585920948480" vector-effect="non-scaling-stroke"/><path transform="translate(-17.6 -8.055)" d="M45.02,19.995a4.8,4.8,0,0,0,.3.66L44,20.235A1.785,1.785,0,0,1,45.02,19.995Z" class="i_1585920948480" vector-effect="non-scaling-stroke"/><path transform="translate(-15.36 -9.26)" d="M44.22,23a2.361,2.361,0,0,0,.78.24s1.62,4.5-6.6,5.22l.24-.72C38.58,27.74,45.72,27.62,44.22,23Z" class="j_1585920948480" vector-effect="non-scaling-stroke"/><path transform="translate(-22.24 -12.619)" d="M60.88,32.179l.48.18s-1.44,1.32-5.58-.48c0,0-.06-.48-.18-.48C55.66,31.339,59.26,33.2,60.88,32.179Z" class="d_1585920948480" vector-effect="non-scaling-stroke"/><path transform="translate(-22.04 -13.02)" d="M55.1,32.76l.06.18s2.58,1.62,3,1.8c.3.18,1.8.78,2.64-.18a1.757,1.757,0,0,1-1.44-.06,16.853,16.853,0,0,1-1.68-.78c-.9-.54-2.16-1.32-2.16-1.32l.06.3Z" class="k_1585920948480" vector-effect="non-scaling-stroke"/><path transform="translate(-7.6 -15.66)" d="M20.62,39a5.83,5.83,0,0,0,.42,2.28s-.78,3.3-2.04,2.88a2.553,2.553,0,0,0,1.02-1.38,10.33,10.33,0,0,0,.48-3.72Z" class="i_1585920948480" vector-effect="non-scaling-stroke"/><path transform="translate(-7.755 -13.34)" d="M19.7,33.2a5.267,5.267,0,0,0,0,3,3.506,3.506,0,0,1,0-3Z" class="g_1585920948480" vector-effect="non-scaling-stroke"/><path transform="translate(-5.72 -14.02)" d="M14.84,43.48,17,36.4a3.545,3.545,0,0,0,.9,1.56s-1.44,5.1-3.24,6.24l.06-.3s-.78-1.86.72-7.44c0,0-1.68,4.98-.9,7.92l-.24.66s2.52-1.44,3.96-7.2l-.42.18a3.248,3.248,0,0,1-.78-3.12l-.18.24Z" class="i_1585920948480" vector-effect="non-scaling-stroke"/><path transform="translate(-6.079 -12.38)" d="M15.919,30.8a4.66,4.66,0,0,0-.54,3.54v.06A4.271,4.271,0,0,1,15.919,30.8Z" class="g_1585920948480" vector-effect="non-scaling-stroke"/><path transform="translate(-2.88 -14.94)" d="M11.94,37.38l.48-.18a29.343,29.343,0,0,1-1.02,3.12c-.42.72-2.04,4.38-4.2,3.96a5.143,5.143,0,0,0,3.06-3.06s.42-.9.48-1.02c.06-.18.72-1.68.72-1.68Z" class="h_1585920948480" vector-effect="non-scaling-stroke"/><path transform="translate(-1.037 -11.02)" d="M9.737,27.4a13.72,13.72,0,0,0-1.68.72s-5.4,2.28-5.46,2.34c-.18.06,5.22-1.86,5.22-1.86a4.409,4.409,0,0,1,1.92-1.2Z" class="i_1585920948480" vector-effect="non-scaling-stroke"/><path transform="translate(-7.014 -5.38)" d="M17.814,15.16s-.24-1.2-.06-1.38a17.471,17.471,0,0,1,1.14,1.68s-.66.3-.96-.18l.3.48a.852.852,0,0,1,.66-.06,2.27,2.27,0,0,1,.48-.06,1.493,1.493,0,0,1-.3-.42,10.138,10.138,0,0,0-1.32-1.56s.66-.24,1.68.78a3.648,3.648,0,0,1,.9,1.62,3.424,3.424,0,0,0-2.76-2.76A3.346,3.346,0,0,0,17.814,15.16Z" class="h_1585920948480" vector-effect="non-scaling-stroke"/><path transform="translate(-4.2 -3.06)" d="M14.28,9.06S11.76,7.5,10.5,7.5c0,0,.06.96,1.68,2.34,0,0-1.32-1.2-1.14-1.92C11.04,7.92,11.7,7.62,14.28,9.06Z" class="h_1585920948480" vector-effect="non-scaling-stroke"/><path transform="translate(-2.76 -4.1)" d="M6.9,10.1l.48.24s-.06,1.14,1.56,2.28a5.207,5.207,0,0,0,2.16.96,3.983,3.983,0,0,0-.78.06L9,12.74,7.8,11.72H7.62A4.094,4.094,0,0,1,6.9,10.1Z" class="h_1585920948480" vector-effect="non-scaling-stroke"/><path transform="translate(-2.32 -5.1)" d="M9.76,14.94a2.062,2.062,0,0,0,.24.78S5.86,14.1,5.8,12.6a2.993,2.993,0,0,0,1.02,1.2C7.54,14.34,9.34,15.3,9.76,14.94Z" class="h_1585920948480" vector-effect="non-scaling-stroke"/><path transform="translate(-1.32 -6.494)" d="M6.18,16.274s-1.92-.24-2.34.18l-.42-.18s.3.9,2.64,1.92c0,0,1.2.42,1.8-.06l.06.06s-.9.48-.96.54c0,0-3-1.02-3.66-2.52A6.869,6.869,0,0,1,6.18,16.274Z" class="h_1585920948480" vector-effect="non-scaling-stroke"/><path transform="translate(-0.88 -7.579)" d="M6.52,20s.18.3.24.42a6.733,6.733,0,0,0-2.04-.06S2.62,19.7,2.2,18.8A5.847,5.847,0,0,0,6.52,20Z" class="h_1585920948480" vector-effect="non-scaling-stroke"/><path transform="translate(-0.52 -8.82)" d="M3.58,21.9s-1.62.24-1.92.72H1.48s.06.66,2.82,1.38a2.786,2.786,0,0,0,2.28-.3v.06s-.48.42-.54.48A6.894,6.894,0,0,1,4,24a5.442,5.442,0,0,1-2.7-1.38A4.892,4.892,0,0,1,3.58,21.9Z" class="h_1585920948480" vector-effect="non-scaling-stroke"/><path transform="translate(-0.88 -9.38)" d="M2.2,23.3s3.24.3,3.9.3H8.62a2.62,2.62,0,0,0-1.32.42s-1.56-.24-2.1-.3" class="i_1585920948480" vector-effect="non-scaling-stroke"/><path transform="translate(-0.48 -10.46)" d="M1.2,26a3.245,3.245,0,0,0,1.8.48,22.01,22.01,0,0,1,2.64-.06l.3.18s-1.56.18-2.1.18C3.24,26.72,1.8,26.84,1.2,26Z" class="h_1585920948480" vector-effect="non-scaling-stroke"/><path transform="translate(-0.6 -11.46)" d="M4.62,28.5s-2.64,1.44-2.64,2.34l-.18.06s.18.3,2.04,0l.06.06H3.6a4.691,4.691,0,0,1-2.1,0A8.79,8.79,0,0,1,4.62,28.5Z" class="h_1585920948480" vector-effect="non-scaling-stroke"/><path transform="translate(-2.236 -12.5)" d="M8.536,31.1s-.06.42-.06.54a20.969,20.969,0,0,1-2.28.66s-.18.06-.24-.06c0,0-.06-.06-.3-.06l-.06-.06C5.476,32.06,7.336,31.7,8.536,31.1Z" class="d_1585920948480" vector-effect="non-scaling-stroke"/><path transform="translate(-1.76 -12.54)" d="M11.12,31.2a2.61,2.61,0,0,0-.3.78L5,39.42s1.32.18,3.96-3.3a18.524,18.524,0,0,0,1.68-2.76,4.093,4.093,0,0,1,.06-.72,10.187,10.187,0,0,0,0,1.38s-3.12,5.58-6.3,6l3.06-4.14,3.3-4.5Z" class="i_1585920948480" vector-effect="non-scaling-stroke"/><path transform="translate(-7.6 -15.66)" d="M20.62,39a5.83,5.83,0,0,0,.42,2.28s-.78,3.3-2.04,2.88a2.553,2.553,0,0,0,1.02-1.38,10.33,10.33,0,0,0,.48-3.72Z" class="i_1585920948480" vector-effect="non-scaling-stroke"/><path transform="translate(-5.72 -14.02)" d="M14.84,43.48,17,36.4a3.545,3.545,0,0,0,.9,1.56s-1.44,5.1-3.24,6.24l.06-.3s-.78-1.86.72-7.44c0,0-1.68,4.98-.9,7.92l-.24.66s2.52-1.44,3.96-7.2l-.42.18a3.248,3.248,0,0,1-.78-3.12l-.18.24Z" class="i_1585920948480" vector-effect="non-scaling-stroke"/><path transform="translate(-2.88 -14.94)" d="M11.94,37.38l.48-.18a29.343,29.343,0,0,1-1.02,3.12c-.42.72-2.04,4.38-4.2,3.96a5.143,5.143,0,0,0,3.06-3.06s.42-.9.48-1.02c.06-.18.72-1.68.72-1.68Z" class="h_1585920948480" vector-effect="non-scaling-stroke"/><path transform="translate(-1.76 -12.54)" d="M11.12,31.2a2.61,2.61,0,0,0-.3.78L5,39.42s1.32.18,3.96-3.3a18.524,18.524,0,0,0,1.68-2.76,4.093,4.093,0,0,1,.06-.72,10.187,10.187,0,0,0,0,1.38s-3.12,5.58-6.3,6l3.06-4.14,3.3-4.5Z" class="i_1585920948480" vector-effect="non-scaling-stroke"/><path transform="translate(-2 -13.14)" d="M9.08,32.7A32.769,32.769,0,0,0,6.2,36.48a6.292,6.292,0,0,0-1.02,3.54L5,40.2a7.994,7.994,0,0,1,.18-1.68A15.636,15.636,0,0,1,9.08,32.7Z" class="h_1585920948480" vector-effect="non-scaling-stroke"/><path transform="translate(-0.48 -12.98)" d="M7.32,32.3l-1.8,1.92a14.328,14.328,0,0,1-2.4,1.2s-1.32.54-1.92-.54a3.154,3.154,0,0,0,1.62,0,10.313,10.313,0,0,0,1.44-.54s1.68-1.02,2.1-1.38a12.069,12.069,0,0,1,1.02-.66Z" class="h_1585920948480" vector-effect="non-scaling-stroke"/><path transform="translate(-7.92 -13.06)" d="M22.14,33.76a1.042,1.042,0,0,0,.42.66l-.84,3.6.42-3.42a5.751,5.751,0,0,1-.9,1.62,6.558,6.558,0,0,0,.42,2.28,4.683,4.683,0,0,0,1.56-3.54s.06-.18-.18-.24a1.312,1.312,0,0,0-.3-.18,3.02,3.02,0,0,0,.78.24s-.24,3.06-1.92,4.26v-.48s-.42-.42-.48-2.16a3.313,3.313,0,0,1-.96.66l.06-.42a3.54,3.54,0,0,0,1.8-2.82,4.852,4.852,0,0,1-.96,0l-.78,2.64.42-2.82a2.956,2.956,0,0,1-.9-.78h0a.878.878,0,0,1,.18-.3V32.5h0l.06.06a1.725,1.725,0,0,0,2.16.72v.24h.06s.06-.06,0-.24v-.06s.24.72,1.56.48c0,0,.18-.06.18.06V34h.06v-.18h0a1.177,1.177,0,0,0,1.38-.06l.24.42-.06-.06a1.673,1.673,0,0,1-1.56.06C23.88,34.06,22.92,34.3,22.14,33.76Z" class="i_1585920948480" vector-effect="non-scaling-stroke"/><path transform="translate(-6.12 -12.34)" d="M16.2,30.7a1.012,1.012,0,0,0,.24.42,1.641,1.641,0,0,1,.24.3.262.262,0,0,0,.24.18l.18-.24a1.1,1.1,0,0,0,1.08.3h0a3.337,3.337,0,0,0-.24.48,10.451,10.451,0,0,1-.72,1.38,3.455,3.455,0,0,1-1.92,1.2l.24-.48a2,2,0,0,0,.96-.3,3.783,3.783,0,0,0,1.38-1.86,5.086,5.086,0,0,1-.9-.42l-1.44,2.22.9-2.34a.468.468,0,0,0,0-.3C16.38,31.06,16.2,30.82,16.2,30.7Z" class="i_1585920948480" vector-effect="non-scaling-stroke"/><path transform="translate(-4.08 -11.1)" d="M12.72,27.6A3.179,3.179,0,0,0,10.68,30a3.6,3.6,0,0,0,3.12-.78,3.171,3.171,0,0,1-.66-.54l-2.34,1.2a22.478,22.478,0,0,0,2.16-1.62l.3-.18a2,2,0,0,0,.9.78s-1.8,1.86-3.96,1.2l.3-.18C10.62,30.06,10.8,28.2,12.72,27.6Z" class="i_1585920948480" vector-effect="non-scaling-stroke"/><path transform="translate(-3.6 -9.9)" d="M10.44,24.6s-1.2.54-1.32,1.14l2.76-.48.3.48h0L12,25.56l-2.88.24a4.82,4.82,0,0,0,2.52.72,6.248,6.248,0,0,0-.72.3,3.7,3.7,0,0,1-1.86-.72h.06s.78.48.9.3c.06-.18-.3-.18-.48-.3-.12-.06-.54-.3-.54-.36A3.09,3.09,0,0,1,10.44,24.6Z" class="i_1585920948480" vector-effect="non-scaling-stroke"/><path transform="translate(-4.04 -7.989)" d="M12.86,19.869a4.19,4.19,0,0,0-2.64.48,7.318,7.318,0,0,0,1.32.3,14.477,14.477,0,0,0,1.56.3s-.24.24-.24.3l-2.58-.9a2.653,2.653,0,0,0,1.56,1.56s.48.18.54.06c.06-.18.24-.3.3-.42a1.491,1.491,0,0,0-.3.66s-.48-.18-.66-.24a2.974,2.974,0,0,1-1.62-1.62A3.744,3.744,0,0,1,12.86,19.869Z" class="i_1585920948480" vector-effect="non-scaling-stroke"/><path transform="translate(-5.12 -6.607)" d="M16.04,17.227a6.169,6.169,0,0,0-3.06-.72s.06,1.68,1.38,1.62c0,0-.24.3-.42.24a2.374,2.374,0,0,1-1.14-1.92A4.106,4.106,0,0,1,16.04,17.227Z" class="i_1585920948480" vector-effect="non-scaling-stroke"/><path transform="translate(-5.32 -6.74)" d="M13.3,16.7s1.86.96,2.4,1.2l-.06.18a3.761,3.761,0,0,0-.66-.06Z" class="i_1585920948480" vector-effect="non-scaling-stroke"/><path transform="translate(-4.64 -3.34)" d="M11.6,8.2,14,10.06a9.249,9.249,0,0,0,2.16,1.32l-.9-.3s-.24-.06-.24.24c0,0,0,.24-.06.3a2.067,2.067,0,0,0-.06-.54c-.18-.18-.9-.78-.9-.78Z" class="i_1585920948480" vector-effect="non-scaling-stroke"/><path transform="translate(-3.08 -4.194)" d="M13.58,13.794s.06.42.18.42v.06a18.415,18.415,0,0,0-1.86-.66l-4.2-3.24s.66-.24,2.52.48c0,0-1.86-.66-2.28-.42l4.68,3.12s.54.3,1.02.54C13.64,14.214,13.58,13.914,13.58,13.794Z" class="i_1585920948480" vector-effect="non-scaling-stroke"/><path transform="translate(-1.76 -6.78)" d="M4.4,16.8l5.4,1.62-.18-.24.24.24a7.052,7.052,0,0,0-1.14,0C8.78,18.42,4.82,16.86,4.4,16.8Z" class="i_1585920948480" vector-effect="non-scaling-stroke"/><path transform="translate(-8 -7.082)" d="M20,17.582a1.454,1.454,0,0,1,.54,0,1.214,1.214,0,0,1,.66,1.32l-.3.12A1.085,1.085,0,0,0,20,17.582Z" class="i_1585920948480" vector-effect="non-scaling-stroke"/><path transform="translate(-8.68 -7.9)" d="M21.94,19.6s.9.24.78.96a.85.85,0,0,1-1.02.9s.78,0,.78-.72c0,0,.06-.9-.78-.96Z" class="i_1585920948480" vector-effect="non-scaling-stroke"/><path transform="translate(-7.92 -4.94)" d="M19.8,12.2s4.2,3.12,3.24,5.7a1.266,1.266,0,0,1-1.68.72,1.4,1.4,0,0,0,1.38-1.38A11.455,11.455,0,0,0,19.8,12.2Z" class="h_1585920948480" vector-effect="non-scaling-stroke"/><path transform="translate(-8.12 -8.9)" d="M20.3,22.16l.96-.06s-.18.54-.54.66C20.72,22.7,20.36,22.34,20.3,22.16Z" class="i_1585920948480" vector-effect="non-scaling-stroke"/><path transform="translate(-7.64 -7.54)" d="M19.82,18.7l-.72,2.28a4.093,4.093,0,0,0,.72-.06C19.76,20.8,20.36,19.48,19.82,18.7Z" class="i_1585920948480" vector-effect="non-scaling-stroke"/><path transform="translate(-7.6 -8.94)" d="M20.32,24.36,19,22.26a3.747,3.747,0,0,0,.72-.06A2.536,2.536,0,0,1,20.32,24.36Z" class="i_1585920948480" vector-effect="non-scaling-stroke"/><path transform="translate(-6.68 -8.204)" d="M17.6,20.5a3.184,3.184,0,0,0-.18.66,2.622,2.622,0,0,1,.48.42,2.555,2.555,0,0,1-.72-.66l-.48-.48C16.7,20.384,17,20.264,17.6,20.5Z" class="i_1585920948480" vector-effect="non-scaling-stroke"/><path transform="translate(-6.08 -9.06)" d="M17.48,22.5l-.42,1.14a2.239,2.239,0,0,1-1.86,0Z" class="i_1585920948480" vector-effect="non-scaling-stroke"/><path transform="translate(-5.713 -7.093)" d="M16.633,25.993s-.66-.78-.42-1.32c0,0-.54-.42-.54-.78a1.288,1.288,0,0,0,.66.66,7.059,7.059,0,0,0,1.56.9s-2.82-1.02-2.04-3.54a1.641,1.641,0,0,1-.9-.24,1.788,1.788,0,0,1,1.32-1.56,1.351,1.351,0,0,0-.42.06.983.983,0,0,1,0-.96,1.19,1.19,0,0,1,.96.06s.54-1.14,1.2-1.14a1.692,1.692,0,0,1,.24,1.56s.66.24.72.54a.649.649,0,0,1-.18.42s.78,0,.78-.66a.867.867,0,0,0-.9-.96s.18-1.32-.96-1.44a1.383,1.383,0,0,0-1.44.96s-.96-.3-1.38.42a1.331,1.331,0,0,0,.18,1.2,1.691,1.691,0,0,0-.78,1.56,1.875,1.875,0,0,0,.54,1.14,2.267,2.267,0,0,0,1.2,2.1C15.853,25.033,16.213,25.813,16.633,25.993Z" class="h_1585920948480" vector-effect="non-scaling-stroke"/><path transform="translate(-7.209 -9.78)" d="M18.189,24.3a2.242,2.242,0,0,0,1.62.9,2.213,2.213,0,0,1-.96-.24s-.54,1.38,1.68,2.04a9.779,9.779,0,0,0,2.28.48l-.18.72a10.7,10.7,0,0,1-3-.78C18.729,26.88,17.589,26.28,18.189,24.3Z" class="l_1585920948480" vector-effect="non-scaling-stroke"/><path transform="translate(-12.947 -3.54)" d="M32.387,8.7a3.568,3.568,0,0,1,.42.18c.24.06.48.06.48.18,0,0-.18.42-.48.3C32.387,9.3,32.327,9.06,32.387,8.7Z" class="i_1585920948480" vector-effect="non-scaling-stroke"/><path transform="translate(-20.24 -8.06)" d="M54.56,23.48l-3.24-.24c0,.06.06.24.06.3ZM50.6,25.34v.06L53,26.96l-2.28-1.8A.742.742,0,0,1,50.6,25.34ZM53.96,20,51.8,21.02c0,.06.06.18.06.24Z" class="g_1585920948480" vector-effect="non-scaling-stroke"/><path transform="translate(-22.64 -10.34)" d="M57.02,26.42h0a1.288,1.288,0,0,1-.42.24,18.555,18.555,0,0,1,1.8.48c3.3.42,3.06-1.44,3.06-1.44C61.04,27.08,57.02,26.42,57.02,26.42Z" class="g_1585920948480" vector-effect="non-scaling-stroke"/><path transform="translate(-22.52 -22.78)" d="M56.48,57.4a.663.663,0,0,1-.18.42c.24.06.3.42.42.54.48-.3.42-1.44-.18-1.56C56.66,56.86,56.6,57.28,56.48,57.4Z" class="m_1585920948480" vector-effect="non-scaling-stroke"/><path transform="translate(-21.84 -24.922)" d="M54.66,62.242a3.709,3.709,0,0,1-.06.9c.66.06.96-.42,1.02-.96,0,0,0-.06-.24,0A4.093,4.093,0,0,1,54.66,62.242Z" class="m_1585920948480" vector-effect="non-scaling-stroke"/><path transform="translate(-20.28 -25.962)" d="M51.24,64.782a4.364,4.364,0,0,0-.54.48,1.138,1.138,0,0,0,1.38-.3v-.18s0-.06-.24,0Z" class="m_1585920948480" vector-effect="non-scaling-stroke"/><path transform="translate(-17.8 -24.718)" d="M44.92,61.8H44.5a1.02,1.02,0,0,0,1.62.42c-.3-.06-.42-.24-.54-.54C45.46,61.558,45.1,61.8,44.92,61.8Z" class="m_1585920948480" vector-effect="non-scaling-stroke"/><path transform="translate(-7.88 -24.94)" d="M20.3,62.38a.3.3,0,0,1-.3-.18,1.321,1.321,0,0,1-.06.48l-.24.24c.48.24,1.32.06,1.32-.54Z" class="m_1585920948480" vector-effect="non-scaling-stroke"/><path transform="translate(-5.44 -26.02)" d="M13.6,65.26a.983.983,0,0,0,1.62.3,1.735,1.735,0,0,1-.66-.66C14.62,64.96,14.14,65.44,13.6,65.26Z" class="m_1585920948480" vector-effect="non-scaling-stroke"/><path transform="translate(-4.08 -25.26)" d="M10.2,63.06a.99.99,0,0,0,.54.78,1.446,1.446,0,0,0,.9.24c-.06-.18-.18-.24-.24-.42s0-.42-.06-.66A2.557,2.557,0,0,1,10.2,63.06Z" class="m_1585920948480" vector-effect="non-scaling-stroke"/><path transform="translate(-3.552 -23.42)" d="M9.132,58.4c-.42.42-.3,1.44.24,1.56,0-.48.3-.66.54-.9A.939.939,0,0,1,9.132,58.4Z" class="m_1585920948480" vector-effect="non-scaling-stroke"/><path transform="translate(-10.56 -3.5)" d="M30.72,10.76c.18.3-.18.24-.18.24-1.44-.72-1.8.18-1.8.18,0,.06-.06.24,0,.24.06.06.18,0,.18,0,.54-.42,1.38,0,1.38,0,1.38.66,1.2-.3,1.2-.3-.24-1.38-2.34-1.38-2.34-1.38A1.548,1.548,0,0,0,27.6,8.6c-.66,0-1.2.24-1.2.9a1.839,1.839,0,0,0,.24,1.02,1.305,1.305,0,0,1,.96-.42c.3,0,.48.24.66.42C30.06,9.98,30.72,10.76,30.72,10.76Z" class="m_1585920948480" vector-effect="non-scaling-stroke"/><path transform="translate(-12.4 -5.26)" d="M32.56,13.42a1.044,1.044,0,0,1-.42-.18A2.138,2.138,0,0,0,31,13.06a1.444,1.444,0,0,1,1.32.78,1.837,1.837,0,0,1-.06,1.44c.18-.24.42-.54.42-.54a1.083,1.083,0,0,0-.12-1.32ZM33.4,13c0,.18-.18.48-.66.42h0l.06.06a2.129,2.129,0,0,0,.42-.06c0,.18-.06.18-.06.18a3,3,0,0,1-.06,1.44.3.3,0,0,1,.18-.06.3.3,0,0,0,.18.06A2.612,2.612,0,0,0,33.4,13Z" class="f_1585920948480" vector-effect="non-scaling-stroke"/><path transform="translate(-10.804 -4.278)" d="M31.2,11.058c0,.06.24.42.24.54.06.18.24.9-.72.42-.96-.42-1.38-.18-1.56.06-.06.24,0,.18,0,.18.54-.42,1.38,0,1.38,0,1.38.66,1.2-.3,1.2-.3a1.035,1.035,0,0,0-.54-.9Zm-4.08,0a2.97,2.97,0,0,1,.78-.24c.3,0,.48.24.66.42,1.86-.54,2.52.3,2.52.3a.3.3,0,0,1,.06.18s.06-.06,0-.24a1.9,1.9,0,0,0-1.86-.54c-.18,0-1.62-.96-2.16.12C27,11,26.944,11.178,27.124,11.058Z" class="n_1585920948480" vector-effect="non-scaling-stroke"/><path transform="translate(-10.96 -0.14)" d="M30.64,4.34c2.1.42,2.28.18,2.28.18a20.245,20.245,0,0,1,.54-2.04A15.036,15.036,0,0,1,34.24.8c-.42.24-.96.3-1.32.72-.24-.3-.78-.06-.9.18a.428.428,0,0,0-.42-.48c.24-.42-.18-.72-.48-.48,0-.24-.24-.42-.42-.54a.622.622,0,0,0-.24.66c-.24-.24-.66,0-.48.3-.42,0-.48.42-.48.72-.06-.42-.66-.48-.9-.18-.18-.48-.9-.42-1.2-.72a17.046,17.046,0,0,1,1.32,3.36A9,9,0,0,1,30.64,4.34Z" class="m_1585920948480" vector-effect="non-scaling-stroke"/><path transform="translate(-11.48 -3.7)" d="M28.88,9.1l.06.06v.42s0,.18-.24,0c0,0,0,.06.3.18a.874.874,0,0,1,.72.24l.06.06h.06C29.9,10,29.72,9.28,28.88,9.1Z" class="n_1585920948480" vector-effect="non-scaling-stroke"/><path transform="translate(-11.84 -0.819)" d="M29.6,2.379s.06.06.06.54c-.06.48.06.66.18.66h.3s0-.18.06-.24a1.382,1.382,0,0,0,.24-.66.948.948,0,0,1-.18.66s-.18.3.24.3.42-.18.48-.18a.327.327,0,0,0-.18-.3.646.646,0,0,1-.24-.3,3,3,0,0,0,.3.42c.06.06.18.3,0,.42,0,0,0,.06.18,0a.9.9,0,0,0,.54-.66s0-.18-.06-.24-.3-.72.24-.9c0,0,.54-.06.48.72a3.231,3.231,0,0,0-.06.48c.06.06,0,.48.54.66a.947.947,0,0,1,0-.42,4.657,4.657,0,0,0,.24-.42.633.633,0,0,0-.06-.66.66.66,0,0,1,.18.54c-.18.3-.66.72-.18.96,0,0,.42.06.48-.24a1.918,1.918,0,0,0-.06-.42c-.06-.24-.18-.48-.06-.72a.493.493,0,0,0,0,.54.645.645,0,0,1,.06.72s.3.06.42-.06c.18-.18.18-.3.24-.66a9.277,9.277,0,0,1,.24-.9,2.164,2.164,0,0,0-.24.78c0,.48-.06.78-.3.9H33.2a2.253,2.253,0,0,1-.66,0c-.3-.06-.48-.3-.48-.9h-.18s.18,0,.24-.24,0-.66-.3-.66a.433.433,0,0,0-.42.48.649.649,0,0,0,.18.42.38.38,0,0,1-.06.54c-.18.18-.24.3-.54.3a1.866,1.866,0,0,1-.66-.06s-.48.18-.54-.24v-.42c-.12-.12-.12-.3-.18-.54Z" class="n_1585920948480" vector-effect="non-scaling-stroke"/><path transform="translate(-13.24 -2.9)" d="M33.1,7.1s.48.06.72.06.42.06.54.06h.54a3.8,3.8,0,0,1-.9,0,5.284,5.284,0,0,1-.9-.12Z" class="n_1585920948480" vector-effect="non-scaling-stroke"/><path transform="translate(-12.12 -2.66)" d="M30.3,6.5h0s.66.06.78.06c.18,0,.66.06.72.06s.9.06,1.02.06h.06a2.052,2.052,0,0,1-.66-.06c-.06,0-1.14-.06-1.2-.06Z" class="n_1585920948480" vector-effect="non-scaling-stroke"/><path transform="translate(-12.12 -2.22)" d="M31.26,5.4h-.48c-.42,0-.48,0-.48.24a.351.351,0,0,0,.06.24h.84c.12,0,.12-.18.12-.24C31.32,5.46,31.32,5.46,31.26,5.4Zm-.24.42h-.66c-.06,0-.06-.18-.06-.24s.18-.06.24-.06h.54c.06,0,.06.06.06.24C31.14,5.82,31.02,5.82,31.02,5.82Z" class="n_1585920948480" vector-effect="non-scaling-stroke"/><path transform="translate(-13.92 -2.3)" d="M35.64,5.66a4.653,4.653,0,0,1-.54-.06c-.3,0-.3.18-.3.3,0,.18.54.24.72.24.24,0,.3-.06.3-.18C35.76,5.78,35.7,5.66,35.64,5.66Zm-.24.3a2.476,2.476,0,0,1-.54-.06s-.06-.06,0-.24c0,0,.06-.06.3-.06a3.316,3.316,0,0,1,.54.06C35.64,5.66,35.7,5.96,35.4,5.96Z" class="n_1585920948480" vector-effect="non-scaling-stroke"/><path transform="translate(-12.96 -2.22)" d="M33.54,5.64a.176.176,0,0,0-.18-.18,3.316,3.316,0,0,0-.54-.06h-.18a.192.192,0,0,0-.18.18c0,.06,0,.18.06.18a3.17,3.17,0,0,0,.78.06h0a.178.178,0,0,0,.24-.18Zm-.96-.24h.72c0,.06.06.24-.18.3h-.66a.263.263,0,0,1-.06-.18C32.4,5.46,32.46,5.46,32.58,5.4Z" class="n_1585920948480" vector-effect="non-scaling-stroke"/><path transform="translate(-12.824 -25.34)" d="M34.184,64.58a2.883,2.883,0,0,1-.24-1.2.192.192,0,0,0-.18-.18c-.06.24-.18.42-.24.66a5.153,5.153,0,0,1-.72,3.96c-.9-.78-.72-3.66-.72-3.66h0c-.18,3.12.72,3.78.72,3.78v.54a4.86,4.86,0,0,0,1.02-2.76,5.978,5.978,0,0,0-.18-1.8l.24.3Z" class="d_1585920948480" vector-effect="non-scaling-stroke"/></g></svg>