<svg xmlns="http://www.w3.org/2000/svg" width="29.25" height="26" viewBox="0 0 29.25 26"><defs><style>.a{fill:#e40000;}</style></defs><path class="a" d="M18371.439-207a2.417,2.417,0,0,1-2.107-1.221,2.392,2.392,0,0,1,0-2.433l12.184-21.129a2.414,2.414,0,0,1,2.111-1.217,2.413,2.413,0,0,1,2.109,1.217l12.184,21.129a2.385,2.385,0,0,1,0,2.429,2.4,2.4,0,0,1-2.109,1.225Zm11.41-23.827-11.934,20.8a.858.858,0,0,0,0,.861.866.866,0,0,0,.752.436h23.869a.862.862,0,0,0,.754-.436.848.848,0,0,0,0-.861l-11.934-20.8a.866.866,0,0,0-.754-.432A.859.859,0,0,0,18382.85-230.826Zm-1.076,18.061a2.029,2.029,0,0,1,2.029-2.029,2.03,2.03,0,0,1,2.027,2.029,2.032,2.032,0,0,1-2.027,2.029A2.032,2.032,0,0,1,18381.773-212.765Zm.957-3.688a.536.536,0,0,1-.529-.5l-.328-6a.525.525,0,0,1,.15-.392.513.513,0,0,1,.381-.168h2.795a.524.524,0,0,1,.381.164.534.534,0,0,1,.148.4l-.328,6a.533.533,0,0,1-.527.5Z" transform="translate(-18369 232.999)"/></svg>