<svg xmlns="http://www.w3.org/2000/svg" width="22" height="19.556" viewBox="0 0 22 19.556">
  <path id="Icon_awesome-hospital-alt" data-name="Icon awesome-hospital-alt" d="M20.778,3.667H15.889V1.222A1.221,1.221,0,0,0,14.667,0H7.333A1.221,1.221,0,0,0,6.111,1.222V3.667H1.222A1.221,1.221,0,0,0,0,4.889V18.944a.613.613,0,0,0,.611.611H21.389A.613.613,0,0,0,22,18.944V4.889A1.221,1.221,0,0,0,20.778,3.667ZM6.111,16.653a.46.46,0,0,1-.458.458H4.125a.46.46,0,0,1-.458-.458V15.125a.46.46,0,0,1,.458-.458H5.653a.46.46,0,0,1,.458.458Zm0-4.889a.46.46,0,0,1-.458.458H4.125a.46.46,0,0,1-.458-.458V10.236a.46.46,0,0,1,.458-.458H5.653a.46.46,0,0,1,.458.458Zm6.111,4.889a.46.46,0,0,1-.458.458H10.236a.46.46,0,0,1-.458-.458V15.125a.46.46,0,0,1,.458-.458h1.528a.46.46,0,0,1,.458.458Zm0-4.889a.46.46,0,0,1-.458.458H10.236a.46.46,0,0,1-.458-.458V10.236a.46.46,0,0,1,.458-.458h1.528a.46.46,0,0,1,.458.458Zm.611-6.493A.23.23,0,0,1,12.6,5.5h-.993v.993a.23.23,0,0,1-.229.229h-.764a.23.23,0,0,1-.229-.229V5.5H9.4a.23.23,0,0,1-.229-.229V4.507A.23.23,0,0,1,9.4,4.278h.993V3.285a.23.23,0,0,1,.229-.229h.764a.23.23,0,0,1,.229.229v.993H12.6a.23.23,0,0,1,.229.229Zm5.5,11.382a.46.46,0,0,1-.458.458H16.347a.46.46,0,0,1-.458-.458V15.125a.46.46,0,0,1,.458-.458h1.528a.46.46,0,0,1,.458.458Zm0-4.889a.46.46,0,0,1-.458.458H16.347a.46.46,0,0,1-.458-.458V10.236a.46.46,0,0,1,.458-.458h1.528a.46.46,0,0,1,.458.458Z" fill="#0061a3"/>
</svg>
